<svg width="102" height="78" viewBox="0 0 102 78" fill="none" xmlns="http://www.w3.org/2000/svg">
<path d="M0 6C0 2.68629 2.68629 0 6 0H96C99.3137 0 102 2.68629 102 6V72C102 75.3137 99.3137 78 96 78H6C2.68629 78 0 75.3137 0 72V6Z" fill="#E0E6EA"/>
<path d="M34.5234 62.3516H30.1172L29.1953 65H27.1406L31.4375 53.625H33.2109L37.5156 65H35.4531L34.5234 62.3516ZM30.6719 60.7578H33.9688L32.3203 56.0391L30.6719 60.7578ZM38.2734 60.7109C38.2734 59.4089 38.5755 58.3646 39.1797 57.5781C39.7839 56.7865 40.5938 56.3906 41.6094 56.3906C42.5052 56.3906 43.2292 56.7031 43.7812 57.3281V53H45.6797V65H43.9609L43.8672 64.125C43.2995 64.8125 42.5417 65.1562 41.5938 65.1562C40.6042 65.1562 39.8021 64.7578 39.1875 63.9609C38.5781 63.1641 38.2734 62.0807 38.2734 60.7109ZM40.1719 60.875C40.1719 61.7344 40.3359 62.4062 40.6641 62.8906C40.9974 63.3698 41.4688 63.6094 42.0781 63.6094C42.8542 63.6094 43.4219 63.263 43.7812 62.5703V58.9609C43.4323 58.2839 42.8698 57.9453 42.0938 57.9453C41.4792 57.9453 41.0052 58.1901 40.6719 58.6797C40.3385 59.1641 40.1719 59.8958 40.1719 60.875ZM49.4453 56.5469L49.5 57.4297C50.0938 56.737 50.9062 56.3906 51.9375 56.3906C53.0677 56.3906 53.8411 56.8229 54.2578 57.6875C54.8724 56.8229 55.737 56.3906 56.8516 56.3906C57.7839 56.3906 58.4766 56.6484 58.9297 57.1641C59.388 57.6797 59.6224 58.4401 59.6328 59.4453V65H57.7344V59.5C57.7344 58.9635 57.6172 58.5703 57.3828 58.3203C57.1484 58.0703 56.7604 57.9453 56.2188 57.9453C55.7865 57.9453 55.4323 58.0625 55.1562 58.2969C54.8854 58.526 54.6953 58.8281 54.5859 59.2031L54.5938 65H52.6953V59.4375C52.6693 58.4427 52.1615 57.9453 51.1719 57.9453C50.4115 57.9453 49.8724 58.2552 49.5547 58.875V65H47.6562V56.5469H49.4453ZM63.6016 65H61.7031V56.5469H63.6016V65ZM61.5859 54.3516C61.5859 54.0599 61.6771 53.8177 61.8594 53.625C62.0469 53.4323 62.3125 53.3359 62.6562 53.3359C63 53.3359 63.2656 53.4323 63.4531 53.625C63.6406 53.8177 63.7344 54.0599 63.7344 54.3516C63.7344 54.638 63.6406 54.8776 63.4531 55.0703C63.2656 55.2578 63 55.3516 62.6562 55.3516C62.3125 55.3516 62.0469 55.2578 61.8594 55.0703C61.6771 54.8776 61.5859 54.638 61.5859 54.3516ZM67.4375 56.5469L67.4922 57.5234C68.1172 56.7682 68.9375 56.3906 69.9531 56.3906C71.7135 56.3906 72.6094 57.3984 72.6406 59.4141V65H70.7422V59.5234C70.7422 58.987 70.625 58.5911 70.3906 58.3359C70.1615 58.0755 69.7839 57.9453 69.2578 57.9453C68.4922 57.9453 67.9219 58.2917 67.5469 58.9844V65H65.6484V56.5469H67.4375Z" fill="#46535B"/>
<path d="M61.4285 25.8209V18.2063C61.4285 17.6638 61.092 17.1781 60.584 16.9876L50.1713 13.0829C49.8766 12.9724 49.5519 12.9724 49.2573 13.0829L38.8446 16.9876C38.3366 17.1781 38 17.6638 38 18.2063V27.3174C38 31.8033 40.9699 35.3877 43.6508 37.7335C45.0186 38.9303 46.3803 39.8658 47.3975 40.5015C47.9074 40.8202 48.3342 41.0657 48.6365 41.2331L49.1314 41.4971C49.4978 41.6803 49.9299 41.6807 50.2964 41.4975M50.301 41.4951L50.2982 41.4965" stroke="#006CB7" stroke-width="2" stroke-linecap="round" stroke-linejoin="round"/>
<circle cx="58.5396" cy="35.2574" r="7.46031" stroke="#006CB7" stroke-width="2"/>
<path fill-rule="evenodd" clip-rule="evenodd" d="M54.8616 36.2976C55.3193 35.8399 55.9401 35.5828 56.5873 35.5828H60.4921C61.1393 35.5828 61.7601 35.8399 62.2178 36.2976C62.6754 36.7552 62.9326 37.376 62.9326 38.0232V38.9994C62.9326 39.269 62.714 39.4875 62.4445 39.4875C62.1749 39.4875 61.9564 39.269 61.9564 38.9994V38.0232C61.9564 37.6349 61.8021 37.2624 61.5275 36.9878C61.2529 36.7132 60.8804 36.559 60.4921 36.559H56.5873C56.199 36.559 55.8265 36.7132 55.5519 36.9878C55.2773 37.2624 55.123 37.6349 55.123 38.0232V38.9994C55.123 39.269 54.9045 39.4875 54.6349 39.4875C54.3654 39.4875 54.1469 39.269 54.1469 38.9994V38.0232C54.1469 37.376 54.404 36.7552 54.8616 36.2976Z" fill="#006CB7"/>
<path fill-rule="evenodd" clip-rule="evenodd" d="M58.5397 30.7018C57.731 30.7018 57.0754 31.3574 57.0754 32.1661C57.0754 32.9748 57.731 33.6303 58.5397 33.6303C59.3484 33.6303 60.004 32.9748 60.004 32.1661C60.004 31.3574 59.3484 30.7018 58.5397 30.7018ZM56.0992 32.1661C56.0992 30.8182 57.1919 29.7256 58.5397 29.7256C59.8876 29.7256 60.9802 30.8182 60.9802 32.1661C60.9802 33.5139 59.8876 34.6065 58.5397 34.6065C57.1919 34.6065 56.0992 33.5139 56.0992 32.1661Z" fill="#006CB7"/>
</svg>
