<svg width="98" height="98" viewBox="0 0 24 24" fill="none" xmlns="http://www.w3.org/2000/svg">
<path d="M12 1C18.1 1 23 5.9 23 12C23 18.1 18.1 23 12 23C5.9 23 1 18.1 1 12C1 5.9 5.9 1 12 1ZM12 21C17 21 21 17 21 12C21 7 17 3 12 3C7 3 3 7 3 12C3 17 7 21 12 21Z" fill="#057ED1"/>
<path d="M12 11C12.6 11 13 11.4 13 12L13 16C13 16.6 12.6 17 12 17C11.4 17 11 16.6 11 16L11 12C11 11.4 11.4 11 12 11Z" fill="#057ED1"/>
<path d="M12 7C12.3 7 12.5 7.1 12.7 7.3C12.9 7.5 13 7.7 13 8C13 8.1 13 8.3 12.9 8.4C12.8 8.5 12.8 8.6 12.7 8.7C12.4 9 12 9.1 11.6 8.9C11.5 8.9 11.5 8.9 11.4 8.8C11.4 8.8 11.3 8.7 11.2 8.7C11.1 8.6 11 8.5 11 8.4C11 8.3 11 8.1 11 8C11 7.9 11 7.7 11.1 7.6C11.2 7.5 11.2 7.4 11.3 7.3C11.5 7.1 11.7 7 12 7Z" fill="#057ED1"/>
</svg>
