<svg width="98" height="98" viewBox="0 0 98 98" fill="none" xmlns="http://www.w3.org/2000/svg">
<g opacity="0.8">
<path d="M48.9999 93.9166C24.0916 93.9166 4.08325 73.9082 4.08325 48.9999C4.08325 24.0916 24.0916 4.08325 48.9999 4.08325C73.9082 4.08325 93.9166 24.0916 93.9166 48.9999C93.9166 73.9082 73.9082 93.9166 48.9999 93.9166ZM48.9999 12.2499C28.5833 12.2499 12.2499 28.5833 12.2499 48.9999C12.2499 69.4166 28.5833 85.7499 48.9999 85.7499C69.4166 85.7499 85.7499 69.4166 85.7499 48.9999C85.7499 28.5833 69.4166 12.2499 48.9999 12.2499Z" fill="#AC7171"/>
<path d="M48.9999 53.0832C46.5499 53.0832 44.9166 51.4499 44.9166 48.9999V32.6666C44.9166 30.2166 46.5499 28.5833 48.9999 28.5833C51.4499 28.5833 53.0832 30.2166 53.0832 32.6666V48.9999C53.0832 51.4499 51.4499 53.0832 48.9999 53.0832Z" fill="#AC7171"/>
<path d="M48.9999 69.4166C47.7749 69.4166 46.9582 69.0082 46.1416 68.1916C45.3249 67.3749 44.9166 66.5582 44.9166 65.3332C44.9166 64.9249 44.9166 64.1082 45.3249 63.6999C45.7332 63.2916 45.7332 62.8832 46.1416 62.4749C47.3666 61.2499 48.9999 60.8416 50.6332 61.6582C51.0416 61.6582 51.0416 61.6582 51.4499 62.0666C51.4499 62.0666 51.8582 62.4749 52.2666 62.4749C52.6749 62.8832 53.0832 63.2916 53.0832 63.6999C53.0832 64.1082 53.0832 64.9249 53.0832 65.3332C53.0832 65.7416 53.0832 66.5582 52.6749 66.9666C52.2666 67.3749 52.2666 67.7832 51.8582 68.1916C51.0416 69.0082 50.2249 69.4166 48.9999 69.4166Z" fill="#AC7171"/>
</g>
</svg>
