<svg width="20" height="15" viewBox="0 0 20 15" fill="none" xmlns="http://www.w3.org/2000/svg">
<path d="M19 3.00002H6C5.4 3.00002 5 2.60002 5 2.00002C5 1.40002 5.4 1.00002 6 1.00002H19C19.6 1.00002 20 1.40002 20 2.00002C20 2.60002 19.6 3.00002 19 3.00002Z" fill="#46535B"/>
<path d="M19 9.00002H6C5.4 9.00002 5 8.60002 5 8.00002C5 7.40002 5.4 7.00002 6 7.00002H19C19.6 7.00002 20 7.40002 20 8.00002C20 8.60002 19.6 9.00002 19 9.00002Z" fill="#46535B"/>
<path d="M19 15H6C5.4 15 5 14.6 5 14C5 13.4 5.4 13 6 13H19C19.6 13 20 13.4 20 14C20 14.6 19.6 15 19 15Z" fill="#46535B"/>
<path d="M1 3.00002C0.9 3.00002 0.9 3.00002 0.8 3.00002C0.7 3.00002 0.7 3.00002 0.6 2.90002C0.5 2.90002 0.5 2.80002 0.4 2.80002C0.3 2.80002 0.3 2.70002 0.3 2.70002C0.2 2.60002 0.0999999 2.50002 0.0999999 2.40002C-9.68575e-08 2.30002 0 2.10002 0 2.00002C0 1.90002 -9.68575e-08 1.70002 0.0999999 1.60002C0.2 1.50002 0.2 1.40002 0.3 1.30002C0.6 1.00002 1 0.900023 1.4 1.10002C1.5 1.20002 1.6 1.20002 1.7 1.30002C1.9 1.50002 2 1.70002 2 2.00002C2 2.30002 1.9 2.50002 1.7 2.70002C1.5 2.90002 1.3 3.00002 1 3.00002Z" fill="#46535B"/>
<path d="M1 9.00002C0.7 9.00002 0.5 8.90002 0.3 8.70002C0.0999999 8.50002 0 8.30002 0 8.00002C0 7.90002 0 7.90002 0 7.80002C0 7.70002 -9.68575e-08 7.70002 0.0999999 7.60002C0.0999999 7.50002 0.2 7.50002 0.2 7.40002C0.2 7.30002 0.3 7.30002 0.3 7.30002C0.4 7.20002 0.5 7.10002 0.6 7.10002C1 6.90002 1.4 7.00002 1.7 7.30002L1.8 7.40002C1.8 7.50002 1.9 7.50002 1.9 7.60002C1.9 7.70002 1.9 7.70002 2 7.80002C2 7.90002 2 7.90002 2 8.00002C2 8.30002 1.9 8.50002 1.7 8.70002C1.5 8.90002 1.3 9.00002 1 9.00002Z" fill="#46535B"/>
<path d="M1 15C0.7 15 0.5 14.9 0.3 14.7C0.0999999 14.5 0 14.3 0 14C0 13.9 -9.68575e-08 13.7 0.0999999 13.6C0.2 13.5 0.2 13.4 0.3 13.3C0.7 12.9 1.3 12.9 1.7 13.3C1.9 13.5 2 13.7 2 14C2 14.3 1.9 14.5 1.7 14.7C1.5 14.9 1.3 15 1 15Z" fill="#46535B"/>
</svg>
