<svg width="27" height="19" viewBox="0 0 27 19" fill="none" xmlns="http://www.w3.org/2000/svg">
<path fill-rule="evenodd" clip-rule="evenodd" d="M0.583252 6.91671C0.583252 6.20334 1.16155 5.62504 1.87492 5.62504H25.1249C25.8383 5.62504 26.4166 6.20334 26.4166 6.91671C26.4166 7.63008 25.8383 8.20837 25.1249 8.20837H1.87492C1.16155 8.20837 0.583252 7.63008 0.583252 6.91671Z" fill="#006CB7"/>
<path fill-rule="evenodd" clip-rule="evenodd" d="M0.583252 1.75004C0.583252 1.03667 1.16155 0.458374 1.87492 0.458374H25.1249C25.8383 0.458374 26.4166 1.03667 26.4166 1.75004C26.4166 2.46341 25.8383 3.04171 25.1249 3.04171H1.87492C1.16155 3.04171 0.583252 2.46341 0.583252 1.75004Z" fill="#006CB7"/>
<path fill-rule="evenodd" clip-rule="evenodd" d="M0.583252 12.0834C0.583252 11.37 1.16155 10.7917 1.87492 10.7917H25.1249C25.8383 10.7917 26.4166 11.37 26.4166 12.0834C26.4166 12.7967 25.8383 13.375 25.1249 13.375H1.87492C1.16155 13.375 0.583252 12.7967 0.583252 12.0834Z" fill="#006CB7"/>
<path fill-rule="evenodd" clip-rule="evenodd" d="M0.583252 17.25C0.583252 16.5367 1.16155 15.9584 1.87492 15.9584H25.1249C25.8383 15.9584 26.4166 16.5367 26.4166 17.25C26.4166 17.9634 25.8383 18.5417 25.1249 18.5417H1.87492C1.16155 18.5417 0.583252 17.9634 0.583252 17.25Z" fill="#006CB7"/>
</svg>
