<svg width="15" height="14" viewBox="0 0 15 14" fill="none" xmlns="http://www.w3.org/2000/svg">
<g clip-path="url(#clip0_4953_3699)">
<path fill-rule="evenodd" clip-rule="evenodd" d="M14.7071 0.292893C14.3166 -0.097631 13.6834 -0.097631 13.2929 0.292893L7.29289 6.29289C6.90237 6.68342 6.90237 7.31658 7.29289 7.70711L13.2929 13.7071C13.6834 14.0976 14.3166 14.0976 14.7071 13.7071C15.0976 13.3166 15.0976 12.6834 14.7071 12.2929L9.41421 7L14.7071 1.70711C15.0976 1.31658 15.0976 0.683417 14.7071 0.292893Z" fill="#848C91"/>
</g>
<g clip-path="url(#clip1_4953_3699)">
<path fill-rule="evenodd" clip-rule="evenodd" d="M7.70711 0.292893C7.31658 -0.097631 6.68342 -0.097631 6.29289 0.292893L0.29289 6.29289C-0.0976299 6.68342 -0.0976299 7.31658 0.29289 7.70711L6.29289 13.7071C6.68342 14.0976 7.31658 14.0976 7.70711 13.7071C8.09763 13.3166 8.09763 12.6834 7.70711 12.2929L2.41421 7L7.70711 1.70711C8.09763 1.31658 8.09763 0.683417 7.70711 0.292893Z" fill="#848C91"/>
</g>
<defs>
<clipPath id="clip0_4953_3699">
<rect width="8" height="14" fill="white" transform="matrix(-1 0 0 1 15 0)"/>
</clipPath>
<clipPath id="clip1_4953_3699">
<rect width="8" height="14" fill="white" transform="matrix(-1 0 0 1 8 0)"/>
</clipPath>
</defs>
</svg>
