<svg width="8" height="12" viewBox="0 0 8 12" fill="none" xmlns="http://www.w3.org/2000/svg">
<path d="M1.1703 5.28995L5.4103 1.04995C5.50326 0.95622 5.61387 0.881826 5.73572 0.831057C5.85758 0.780288 5.98829 0.75415 6.1203 0.75415C6.25231 0.75415 6.38302 0.780288 6.50488 0.831057C6.62674 0.881826 6.73734 0.95622 6.8303 1.04995C7.01655 1.23731 7.12109 1.49076 7.12109 1.75495C7.12109 2.01913 7.01655 2.27259 6.8303 2.45995L3.2903 5.99995L6.8303 9.53995C7.01655 9.72731 7.12109 9.98076 7.12109 10.2449C7.12109 10.5091 7.01655 10.7626 6.8303 10.9499C6.73686 11.0426 6.62605 11.116 6.50421 11.1657C6.38237 11.2155 6.25191 11.2407 6.1203 11.2399C5.98869 11.2407 5.85823 11.2155 5.73639 11.1657C5.61456 11.116 5.50374 11.0426 5.4103 10.9499L1.1703 6.70995C1.07657 6.61699 1.00218 6.50638 0.95141 6.38453C0.900642 6.26267 0.874503 6.13196 0.874503 5.99995C0.874503 5.86794 0.900642 5.73723 0.95141 5.61537C1.00218 5.49351 1.07657 5.38291 1.1703 5.28995Z" fill="#006CB7"/>
</svg>
