<svg width="127" height="54" viewBox="0 0 127 54" fill="none" xmlns="http://www.w3.org/2000/svg">
<g clip-path="url(#clip0_5704_4222)">
<path d="M47.9746 44.0849C47.9614 44.0448 47.9415 43.9914 47.9085 43.9113L47.5715 43.1034C47.5319 43.0033 47.4922 42.9165 47.446 42.843C47.4063 42.7629 47.36 42.6961 47.3138 42.636C47.2675 42.576 47.2213 42.5225 47.1684 42.4825C47.1089 42.4424 47.0561 42.4024 46.9966 42.3757C47.1222 42.3356 47.2345 42.2822 47.327 42.2154C47.4261 42.1487 47.512 42.0752 47.5781 41.9884C47.6442 41.8949 47.6971 41.7948 47.7301 41.6813C47.7631 41.5745 47.783 41.4476 47.783 41.3074C47.783 41.1472 47.7565 41.0003 47.7103 40.8801C47.664 40.7533 47.5913 40.6464 47.4988 40.553C47.4063 40.4595 47.3006 40.386 47.1684 40.326C47.0363 40.2725 46.8909 40.2325 46.7257 40.2058C46.6728 40.1991 46.6067 40.1991 46.5407 40.1924C46.4746 40.1857 46.3821 40.1857 46.2763 40.1857H45.2257C45.1596 40.1857 45.1001 40.2058 45.0539 40.2458C45.0076 40.2926 44.9878 40.3527 44.9878 40.4461V44.165C44.9878 44.185 44.9944 44.205 45.001 44.2251C45.0142 44.2384 45.0407 44.2518 45.0671 44.2651C45.1001 44.2718 45.1464 44.2785 45.1992 44.2852C45.2521 44.2918 45.3182 44.2985 45.3975 44.2985C45.4768 44.2985 45.5429 44.2918 45.5957 44.2852C45.6486 44.2785 45.6882 44.2718 45.7213 44.2651C45.7543 44.2518 45.7741 44.2384 45.7874 44.2251C45.8006 44.205 45.8072 44.185 45.8072 44.165V42.6093H46.0649C46.1508 42.6093 46.2301 42.6227 46.2962 42.6494C46.3622 42.6761 46.4217 42.7162 46.4746 42.7696C46.5274 42.823 46.5737 42.8898 46.6134 42.9699C46.653 43.05 46.6993 43.1435 46.7389 43.2436L47.1023 44.1583C47.1089 44.185 47.1222 44.205 47.1354 44.2251C47.1486 44.2384 47.1684 44.2584 47.2015 44.2651C47.2279 44.2785 47.2741 44.2851 47.327 44.2918C47.3733 44.2985 47.446 44.2985 47.5319 44.2985C47.6376 44.2985 47.7169 44.2985 47.783 44.2918C47.8424 44.2851 47.8887 44.2785 47.9151 44.2718C47.9482 44.2584 47.968 44.2451 47.9746 44.2317C47.9878 44.2117 47.9878 44.1917 47.9878 44.1717C47.9878 44.1516 47.9878 44.1182 47.9746 44.0849ZM46.8843 41.6346C46.8578 41.708 46.8116 41.7681 46.7521 41.8215C46.6926 41.8682 46.62 41.9083 46.5341 41.9417C46.4482 41.9684 46.3424 41.9817 46.2301 41.9817H45.8072V40.82H46.1772C46.2697 40.82 46.349 40.8267 46.4019 40.8334C46.4548 40.84 46.501 40.8467 46.5407 40.8601C46.6794 40.8935 46.7785 40.9602 46.838 41.0537C46.8975 41.1472 46.9305 41.2607 46.9305 41.3942C46.9305 41.481 46.9173 41.5611 46.8843 41.6346ZM51.946 43.7978C51.946 43.7577 51.9327 43.7243 51.9261 43.6976C51.9129 43.6776 51.8997 43.6576 51.8865 43.6442C51.8733 43.6309 51.8535 43.6242 51.8336 43.6242H50.3733V42.4758H51.6023C51.6156 42.4758 51.6354 42.4691 51.6486 42.4558C51.6684 42.4491 51.6816 42.4291 51.6883 42.4024C51.7015 42.3823 51.7081 42.3489 51.7147 42.3089C51.7213 42.2688 51.7213 42.2154 51.7213 42.1553C51.7213 42.0952 51.7213 42.0485 51.7147 42.0084C51.7081 41.9684 51.7015 41.935 51.6883 41.9083C51.6816 41.8816 51.6684 41.8682 51.6486 41.8549C51.6354 41.8415 51.6156 41.8349 51.6023 41.8349H50.3733V40.84H51.8204C51.8402 40.84 51.8601 40.8334 51.8733 40.82C51.8865 40.8067 51.8997 40.7933 51.9129 40.7666C51.9195 40.7399 51.9261 40.7065 51.9327 40.6665C51.9394 40.6264 51.9394 40.573 51.9394 40.5129C51.9394 40.4528 51.9394 40.3994 51.9327 40.3593C51.9261 40.3193 51.9195 40.2859 51.9129 40.2592C51.8997 40.2325 51.8865 40.2125 51.8733 40.1991C51.8601 40.1924 51.8402 40.1857 51.8204 40.1857H49.7984C49.7323 40.1857 49.6728 40.2058 49.6266 40.2458C49.5803 40.2926 49.5539 40.3527 49.5539 40.4461V44.0181C49.5539 44.1116 49.5803 44.1783 49.6266 44.2184C49.6728 44.2584 49.7323 44.2785 49.7984 44.2785H51.8336C51.8535 44.2785 51.8733 44.2718 51.8865 44.2584C51.8997 44.2518 51.9129 44.2317 51.9261 44.205C51.9327 44.1783 51.946 44.1449 51.946 44.1049C51.9526 44.0648 51.9592 44.0114 51.9592 43.9513C51.9592 43.8912 51.9526 43.8378 51.946 43.7978ZM56.783 40.5863C56.7698 40.5263 56.7499 40.4862 56.7169 40.4595C56.6905 40.4261 56.6442 40.3927 56.5715 40.3527C56.4988 40.3126 56.4129 40.2792 56.3006 40.2392C56.1949 40.2058 56.0693 40.1791 55.9239 40.1524C55.7852 40.1257 55.62 40.119 55.4482 40.119C55.1244 40.119 54.8402 40.1657 54.5759 40.2659C54.3182 40.366 54.0935 40.5062 53.9151 40.6932C53.7301 40.8801 53.5847 41.1071 53.4856 41.3742C53.3865 41.6412 53.3336 41.9417 53.3336 42.2755C53.3336 42.6027 53.3865 42.8897 53.479 43.1501C53.5715 43.4038 53.7103 43.6242 53.8887 43.7978C54.0605 43.978 54.2786 44.1116 54.5363 44.205C54.7874 44.2985 55.0781 44.3519 55.4019 44.3519C55.5143 44.3519 55.6266 44.3452 55.7323 44.3319C55.8447 44.3252 55.9504 44.3052 56.0561 44.2852C56.1684 44.2651 56.2676 44.2384 56.3733 44.2117C56.4724 44.1783 56.5517 44.1516 56.6244 44.1249C56.6905 44.0982 56.7367 44.0581 56.7566 44.0114C56.7764 43.9647 56.7896 43.9113 56.7896 43.8445V42.2154C56.7896 42.1754 56.783 42.1353 56.7764 42.1019C56.7632 42.0752 56.7499 42.0418 56.7301 42.0218C56.7103 41.9951 56.6839 41.9817 56.6574 41.9684C56.631 41.955 56.6046 41.9484 56.5715 41.9484H55.2037C55.1839 41.9484 55.164 41.955 55.1508 41.9684C55.1376 41.9817 55.1244 41.9951 55.1178 42.0218C55.1046 42.0485 55.098 42.0819 55.0913 42.1219C55.0847 42.162 55.0847 42.2087 55.0847 42.2688C55.0847 42.3823 55.0913 42.4625 55.1178 42.5092C55.1376 42.5559 55.164 42.5826 55.2037 42.5826H55.9702V43.5307C55.8909 43.5708 55.8116 43.6041 55.7191 43.6242C55.6266 43.6442 55.5407 43.6576 55.4482 43.6576C55.2565 43.6576 55.0847 43.6242 54.9328 43.5641C54.7742 43.504 54.642 43.4105 54.5363 43.2903C54.4239 43.1702 54.338 43.0233 54.272 42.843C54.2125 42.6694 54.1795 42.4625 54.1795 42.2288C54.1795 42.0151 54.2125 41.8215 54.272 41.6412C54.3314 41.4676 54.4173 41.3141 54.5363 41.1872C54.6486 41.0671 54.7808 40.9669 54.9394 40.9001C55.098 40.8334 55.2764 40.8 55.4746 40.8C55.653 40.8 55.8182 40.8133 55.957 40.8534C56.0958 40.8935 56.2147 40.9335 56.3138 40.9736C56.4129 41.0203 56.4922 41.0604 56.5517 41.1004C56.6178 41.1405 56.6574 41.1605 56.6839 41.1605C56.7037 41.1605 56.7235 41.1538 56.7367 41.1405C56.7499 41.1338 56.7565 41.1138 56.7698 41.0871C56.7764 41.0604 56.783 41.027 56.7896 40.9803C56.7962 40.9335 56.7962 40.8801 56.7962 40.82C56.7962 40.7199 56.7896 40.6398 56.783 40.5863ZM59.4196 40.2992C59.4196 40.2792 59.4129 40.2592 59.3997 40.2458C59.3865 40.2258 59.3667 40.2125 59.3337 40.1991C59.3006 40.1924 59.261 40.1857 59.2081 40.1791C59.1552 40.1724 59.0892 40.1657 59.0099 40.1657C58.9306 40.1657 58.8645 40.1724 58.8116 40.1791C58.7588 40.1857 58.7191 40.1924 58.6861 40.1991C58.653 40.2125 58.6332 40.2258 58.6134 40.2458C58.6068 40.2592 58.5936 40.2792 58.5936 40.2992V44.165C58.5936 44.185 58.6068 44.205 58.6134 44.2251C58.6332 44.2384 58.653 44.2518 58.6861 44.2651C58.7125 44.2718 58.7588 44.2785 58.8116 44.2852C58.8645 44.2918 58.9306 44.2985 59.0099 44.2985C59.0892 44.2985 59.1552 44.2918 59.2081 44.2852C59.261 44.2785 59.3006 44.2718 59.3337 44.2651C59.3667 44.2518 59.3865 44.2384 59.3997 44.2251C59.4129 44.205 59.4196 44.185 59.4196 44.165V40.2992ZM64.7918 41.2607C64.7125 41.0003 64.5936 40.7866 64.435 40.6197C64.2764 40.4461 64.0782 40.3193 63.8469 40.2392C63.609 40.1524 63.3381 40.1123 63.0341 40.1123C62.7103 40.1123 62.4262 40.1657 62.1883 40.2592C61.9438 40.3593 61.7389 40.5062 61.5737 40.6865C61.4085 40.8734 61.283 41.1004 61.2037 41.3675C61.1178 41.6279 61.0781 41.9283 61.0781 42.2555C61.0781 42.616 61.1178 42.9298 61.1905 43.1969C61.2698 43.4573 61.3887 43.6776 61.5473 43.8445C61.6993 44.0181 61.8975 44.1449 62.1288 44.2251C62.3667 44.3119 62.6442 44.3519 62.9548 44.3519C63.2786 44.3519 63.5561 44.3052 63.8006 44.205C64.0451 44.1049 64.25 43.9647 64.4152 43.7777C64.5804 43.5908 64.6993 43.3638 64.7852 43.0967C64.8711 42.8297 64.9108 42.5225 64.9108 42.182C64.9108 41.8282 64.8711 41.5277 64.7918 41.2607ZM63.9923 42.7829C63.9592 42.9565 63.8997 43.1101 63.8204 43.2436C63.7345 43.3705 63.6222 43.4773 63.49 43.5507C63.3513 43.6242 63.1861 43.6642 62.9812 43.6642C62.783 43.6642 62.6112 43.6308 62.479 43.5641C62.3469 43.4973 62.2411 43.4038 62.1619 43.277C62.0826 43.1501 62.0231 42.9966 61.99 42.8163C61.957 42.6427 61.9372 42.4424 61.9372 42.2154C61.9372 42.0218 61.957 41.8415 61.99 41.6679C62.0231 41.501 62.0826 41.3475 62.1685 41.2206C62.2544 41.0938 62.3601 40.9869 62.4989 40.9135C62.631 40.8334 62.8028 40.8 63.0011 40.8C63.2059 40.8 63.3711 40.8334 63.5033 40.9001C63.6354 40.9669 63.7478 41.0671 63.8271 41.1872C63.9063 41.3141 63.9658 41.4676 63.9989 41.6412C64.0319 41.8215 64.0451 42.0151 64.0451 42.2288C64.0451 42.4224 64.0319 42.6093 63.9923 42.7829ZM69.9064 40.3126C69.9064 40.2926 69.8998 40.2725 69.8865 40.2525C69.8799 40.2325 69.8601 40.2191 69.8337 40.2058C69.8072 40.1924 69.7676 40.1857 69.7213 40.1791C69.6751 40.1791 69.6156 40.1724 69.5429 40.1724C69.4702 40.1724 69.4042 40.1791 69.3579 40.1791C69.3117 40.1857 69.272 40.1924 69.2456 40.2058C69.2125 40.2191 69.1927 40.2325 69.1795 40.2525C69.1663 40.2725 69.1597 40.2926 69.1597 40.3126V42.2288C69.1597 42.3757 69.1663 42.5292 69.1663 42.6895C69.1663 42.8497 69.1729 43.0033 69.1795 43.1501C69.1398 43.0633 69.1002 42.9832 69.0605 42.8964C69.0209 42.8096 68.9812 42.7295 68.9416 42.6427C68.8953 42.5492 68.8557 42.4625 68.8094 42.3757C68.7632 42.2889 68.7169 42.2021 68.6707 42.1086L67.8843 40.613C67.8447 40.5329 67.805 40.4595 67.7654 40.4061C67.7323 40.3527 67.6927 40.3059 67.6464 40.2725C67.6068 40.2458 67.5539 40.2191 67.5011 40.2058C67.4482 40.1924 67.3821 40.1857 67.3028 40.1857H66.8601C66.7808 40.1857 66.7081 40.2125 66.6486 40.2592C66.5892 40.3126 66.5627 40.386 66.5627 40.4862V44.165C66.5627 44.185 66.5693 44.1984 66.5826 44.2184C66.5892 44.2384 66.609 44.2518 66.6354 44.2584C66.6619 44.2718 66.7015 44.2785 66.7478 44.2852C66.794 44.2918 66.8535 44.2985 66.9328 44.2985C67.0055 44.2985 67.0649 44.2918 67.1112 44.2852C67.1641 44.2785 67.2037 44.2718 67.2301 44.2584C67.2566 44.2518 67.2764 44.2384 67.2896 44.2184C67.3028 44.1984 67.3028 44.185 67.3028 44.165V42.0218C67.3028 41.8616 67.3028 41.708 67.3028 41.5544C67.2962 41.4009 67.2896 41.254 67.283 41.1004C67.3359 41.2273 67.3887 41.3541 67.4482 41.4877C67.5077 41.6145 67.5672 41.7414 67.6266 41.8549L68.6376 43.7644C68.6905 43.8712 68.7368 43.958 68.7764 44.0248C68.8161 44.0915 68.8623 44.1449 68.9086 44.185C68.9482 44.2184 69.0011 44.2451 69.0539 44.2651C69.1068 44.2785 69.1663 44.2852 69.2456 44.2852H69.5958C69.6354 44.2852 69.6751 44.2785 69.7081 44.2651C69.7478 44.2584 69.7808 44.2384 69.8139 44.2117C69.8403 44.185 69.8601 44.1583 69.8799 44.1182C69.8932 44.0782 69.9064 44.0381 69.9064 43.9847V40.3126ZM73.8117 40.3393C73.7984 40.2992 73.7852 40.2725 73.7654 40.2458C73.7522 40.2258 73.7192 40.2058 73.6795 40.1924C73.6399 40.1857 73.5804 40.1724 73.5077 40.1724C73.435 40.1657 73.3359 40.1657 73.2169 40.1657C73.1112 40.1657 73.0253 40.1657 72.9592 40.1724C72.8932 40.1724 72.8469 40.1857 72.8073 40.1924C72.7676 40.2058 72.7412 40.2258 72.728 40.2458C72.7147 40.2659 72.6949 40.2992 72.6817 40.3326L71.4328 43.9647C71.4064 44.0381 71.3932 44.0982 71.3865 44.1383C71.3799 44.185 71.3865 44.2184 71.4064 44.2451C71.4328 44.2651 71.4658 44.2785 71.5253 44.2852C71.5782 44.2918 71.6509 44.2985 71.75 44.2985C71.8359 44.2985 71.9086 44.2985 71.968 44.2918C72.0209 44.2851 72.0606 44.2785 72.0936 44.2651C72.12 44.2584 72.1465 44.2384 72.1597 44.2184C72.1729 44.1984 72.1861 44.1783 72.1927 44.1449L72.4504 43.3438H73.9703L74.2412 44.165C74.2478 44.1984 74.261 44.2184 74.2742 44.2317C74.2874 44.2518 74.3073 44.2651 74.3403 44.2718C74.3667 44.2852 74.413 44.2918 74.4791 44.2918C74.5319 44.2985 74.6178 44.2985 74.7236 44.2985C74.8293 44.2985 74.9086 44.2985 74.9681 44.2918C75.0209 44.2851 75.0606 44.2718 75.087 44.2518C75.1134 44.2251 75.12 44.1917 75.1134 44.1516C75.1068 44.1049 75.087 44.0448 75.0672 43.9714L73.8117 40.3393ZM73.7786 42.7095H72.6288L73.2037 40.9669L73.7786 42.7095ZM78.8139 43.7711C78.8073 43.7243 78.8007 43.6909 78.7874 43.6642C78.7742 43.6375 78.761 43.6242 78.7478 43.6108C78.7346 43.5975 78.7148 43.5908 78.6949 43.5908H77.4196V40.2992C77.4196 40.2792 77.413 40.2592 77.3998 40.2458C77.3866 40.2258 77.3667 40.2125 77.3337 40.1991C77.3007 40.1924 77.261 40.1857 77.2081 40.1791C77.1553 40.1724 77.0892 40.1657 77.0033 40.1657C76.924 40.1657 76.8645 40.1724 76.8051 40.1791C76.7522 40.1857 76.7126 40.1924 76.6795 40.1991C76.6465 40.2125 76.6266 40.2258 76.6134 40.2458C76.6002 40.2592 76.5936 40.2792 76.5936 40.2992V44.0181C76.5936 44.1116 76.62 44.1783 76.6663 44.2184C76.7125 44.2584 76.772 44.2785 76.8381 44.2785H78.6949C78.7148 44.2785 78.7346 44.2718 78.7478 44.2584C78.761 44.2451 78.7742 44.2251 78.7874 44.1984C78.8007 44.1716 78.8073 44.1316 78.8139 44.0915C78.8139 44.0448 78.8205 43.9914 78.8205 43.9313C78.8205 43.8712 78.8139 43.8178 78.8139 43.7711ZM83.6046 40.3126C83.6046 40.2926 83.598 40.2725 83.5914 40.2525C83.5782 40.2325 83.5584 40.2191 83.532 40.2058C83.5055 40.1924 83.4725 40.1857 83.4262 40.1791C83.3734 40.1791 83.3139 40.1724 83.2478 40.1724C83.1685 40.1724 83.109 40.1791 83.0628 40.1791C83.0099 40.1857 82.9703 40.1924 82.9438 40.2058C82.9174 40.2191 82.8976 40.2325 82.8844 40.2525C82.8712 40.2725 82.8645 40.2926 82.8645 40.3126V42.2288C82.8645 42.3757 82.8645 42.5292 82.8712 42.6895C82.8712 42.8497 82.8778 43.0033 82.8844 43.1501H82.8778C82.8447 43.0633 82.8051 42.9832 82.7654 42.8964C82.7258 42.8096 82.6861 42.7295 82.6399 42.6427C82.6002 42.5492 82.554 42.4625 82.5077 42.3757C82.4681 42.2889 82.4218 42.2021 82.3756 42.1086L81.5826 40.613C81.5496 40.5329 81.5099 40.4595 81.4703 40.4061C81.4306 40.3527 81.391 40.3059 81.3513 40.2725C81.3051 40.2458 81.2588 40.2191 81.206 40.2058C81.1465 40.1924 81.0804 40.1857 81.0011 40.1857H80.565C80.4791 40.1857 80.4064 40.2125 80.3535 40.2592C80.2941 40.3126 80.2676 40.386 80.2676 40.4862V44.165C80.2676 44.185 80.2676 44.1984 80.2808 44.2184C80.2941 44.2384 80.3073 44.2518 80.3337 44.2584C80.3667 44.2718 80.3998 44.2785 80.4527 44.2852C80.4989 44.2918 80.5584 44.2985 80.6311 44.2985C80.7038 44.2985 80.7698 44.2918 80.8161 44.2852C80.8623 44.2785 80.902 44.2718 80.9284 44.2584C80.9548 44.2518 80.9813 44.2384 80.9879 44.2184C81.0011 44.1984 81.0077 44.185 81.0077 44.165V42.0218C81.0077 41.8616 81.0077 41.708 81.0011 41.5544C80.9945 41.4009 80.9879 41.254 80.9813 41.1004H80.9879C81.0341 41.2273 81.0936 41.3541 81.1531 41.4877C81.2126 41.6145 81.272 41.7414 81.3315 41.8549L82.3359 43.7644C82.3888 43.8712 82.435 43.958 82.4813 44.0248C82.5209 44.0915 82.5606 44.1449 82.6068 44.185C82.6531 44.2184 82.6993 44.2451 82.7522 44.2651C82.8051 44.2785 82.8712 44.2852 82.9438 44.2852H83.2941C83.3337 44.2852 83.3734 44.2785 83.413 44.2651C83.4527 44.2584 83.4857 44.2384 83.5121 44.2117C83.5386 44.185 83.565 44.1583 83.5782 44.1182C83.598 44.0782 83.6046 44.0381 83.6046 43.9847V40.3126ZM86.2742 40.2992C86.2742 40.2792 86.2676 40.2592 86.2544 40.2458C86.2412 40.2258 86.2214 40.2125 86.1883 40.1991C86.1553 40.1924 86.1157 40.1857 86.0628 40.1791C86.0099 40.1724 85.9439 40.1657 85.8646 40.1657C85.7853 40.1657 85.7192 40.1724 85.6663 40.1791C85.6135 40.1857 85.5738 40.1924 85.5408 40.1991C85.5077 40.2125 85.4813 40.2258 85.4681 40.2458C85.4549 40.2592 85.4483 40.2792 85.4483 40.2992V44.165C85.4483 44.185 85.4549 44.205 85.4681 44.2251C85.4813 44.2384 85.5077 44.2518 85.5408 44.2651C85.5672 44.2718 85.6135 44.2785 85.6663 44.2852C85.7192 44.2918 85.7853 44.2985 85.8646 44.2985C85.9439 44.2985 86.0099 44.2918 86.0628 44.2852C86.1157 44.2785 86.1553 44.2718 86.1883 44.2651C86.2214 44.2518 86.2412 44.2384 86.2544 44.2251C86.2676 44.205 86.2742 44.185 86.2742 44.165V40.2992ZM93.5232 44.0849C93.5099 44.0448 93.4901 43.9914 93.4571 43.9113L93.1135 43.1034C93.0738 43.0033 93.0342 42.9165 92.9945 42.843C92.9549 42.7629 92.9086 42.6961 92.8624 42.636C92.8161 42.576 92.7633 42.5225 92.7104 42.4825C92.6575 42.4424 92.5981 42.4024 92.5386 42.3757C92.6641 42.3356 92.7765 42.2822 92.8756 42.2154C92.9747 42.1487 93.054 42.0752 93.1201 41.9884C93.1928 41.8949 93.239 41.7948 93.2721 41.6813C93.3117 41.5745 93.3249 41.4476 93.3249 41.3074C93.3249 41.1472 93.3051 41.0003 93.2522 40.8801C93.206 40.7533 93.1399 40.6464 93.0474 40.553C92.9549 40.4595 92.8425 40.386 92.717 40.326C92.5848 40.2725 92.4395 40.2325 92.2743 40.2058C92.2148 40.1991 92.1553 40.1991 92.0892 40.1924C92.0166 40.1857 91.9307 40.1857 91.8249 40.1857H90.7743C90.7082 40.1857 90.6487 40.2058 90.6025 40.2458C90.5562 40.2926 90.5298 40.3527 90.5298 40.4461V44.165C90.5298 44.185 90.5364 44.205 90.5496 44.2251C90.5628 44.2384 90.5826 44.2518 90.6157 44.2651C90.6487 44.2718 90.6884 44.2785 90.7412 44.2852C90.7941 44.2918 90.8602 44.2985 90.9395 44.2985C91.0188 44.2985 91.0914 44.2918 91.1377 44.2852C91.1972 44.2785 91.2368 44.2718 91.2632 44.2651C91.2963 44.2518 91.3227 44.2384 91.3359 44.2251C91.3492 44.205 91.3558 44.185 91.3558 44.165V42.6093H91.6135C91.6994 42.6093 91.7787 42.6227 91.8447 42.6494C91.9108 42.6761 91.9703 42.7162 92.0166 42.7696C92.0694 42.823 92.1157 42.8898 92.1553 42.9699C92.2016 43.05 92.2412 43.1435 92.2875 43.2436L92.6509 44.1583C92.6575 44.185 92.6707 44.205 92.684 44.2251C92.6906 44.2384 92.717 44.2584 92.7434 44.2651C92.7765 44.2785 92.8161 44.2851 92.869 44.2918C92.9218 44.2985 92.9879 44.2985 93.0804 44.2985C93.1796 44.2985 93.2655 44.2985 93.3249 44.2918C93.3844 44.2851 93.4307 44.2785 93.4637 44.2718C93.4967 44.2584 93.5166 44.2451 93.5232 44.2317C93.5298 44.2117 93.5364 44.1917 93.5364 44.1717C93.5364 44.1516 93.5298 44.1182 93.5232 44.0849ZM92.4329 41.6346C92.3998 41.708 92.3602 41.7681 92.3007 41.8215C92.2412 41.8682 92.1685 41.9083 92.0826 41.9417C91.9901 41.9684 91.891 41.9817 91.7721 41.9817H91.3558V40.82H91.7258C91.8183 40.82 91.891 40.8267 91.9439 40.8334C91.9967 40.84 92.043 40.8467 92.0892 40.8601C92.228 40.8935 92.3271 40.9602 92.3866 41.0537C92.4461 41.1472 92.4725 41.2607 92.4725 41.3942C92.4725 41.481 92.4593 41.5611 92.4329 41.6346ZM97.1642 40.3393C97.1575 40.2992 97.1377 40.2725 97.1179 40.2458C97.1047 40.2258 97.0782 40.2058 97.032 40.1924C96.9923 40.1857 96.9329 40.1724 96.8602 40.1724C96.7875 40.1657 96.695 40.1657 96.5694 40.1657C96.4637 40.1657 96.3778 40.1657 96.3117 40.1724C96.2456 40.1724 96.1994 40.1857 96.1597 40.1924C96.1267 40.2058 96.1003 40.2258 96.0804 40.2458C96.0672 40.2659 96.0474 40.2992 96.0342 40.3326L94.7853 43.9647C94.7655 44.0381 94.7456 44.0982 94.7456 44.1383C94.7324 44.185 94.7456 44.2184 94.7655 44.2451C94.7853 44.2651 94.8183 44.2785 94.8778 44.2852C94.9307 44.2918 95.0033 44.2985 95.1025 44.2985C95.1884 44.2985 95.2611 44.2985 95.3205 44.2918C95.3734 44.2851 95.4196 44.2785 95.4461 44.2651C95.4791 44.2584 95.4989 44.2384 95.5122 44.2184C95.5254 44.1984 95.5386 44.1783 95.5452 44.1449L95.8029 43.3438H97.3227L97.5937 44.165C97.6069 44.1984 97.6135 44.2184 97.6267 44.2317C97.6399 44.2518 97.6597 44.2651 97.6928 44.2718C97.7258 44.2852 97.7721 44.2918 97.8316 44.2918C97.891 44.2985 97.9703 44.2985 98.076 44.2985C98.1818 44.2985 98.2611 44.2985 98.3205 44.2918C98.38 44.2851 98.4197 44.2718 98.4395 44.2518C98.4659 44.2251 98.4725 44.1917 98.4659 44.1516C98.4593 44.1049 98.4461 44.0448 98.4197 43.9714L97.1642 40.3393ZM97.1311 42.7095H95.9813L96.5562 40.9669H96.5628L97.1311 42.7095ZM102.404 43.6843C102.384 43.6375 102.351 43.6108 102.312 43.6108H100.62L102.166 41.1271C102.199 41.0737 102.232 41.0203 102.252 40.9803C102.279 40.9402 102.292 40.9001 102.312 40.8601C102.318 40.82 102.332 40.78 102.338 40.7399C102.345 40.6998 102.345 40.6531 102.345 40.593V40.4395C102.345 40.3593 102.325 40.2992 102.285 40.2525C102.239 40.2058 102.18 40.1857 102.094 40.1857H99.8536C99.8338 40.1857 99.8073 40.1924 99.7941 40.1991C99.7743 40.2125 99.7611 40.2325 99.7479 40.2592C99.7346 40.2859 99.728 40.3193 99.7214 40.3593C99.7148 40.4061 99.7148 40.4595 99.7148 40.5196C99.7148 40.5797 99.7148 40.6331 99.7214 40.6731C99.728 40.7132 99.7346 40.7466 99.7479 40.7733C99.7611 40.8 99.7743 40.82 99.7941 40.8267C99.8073 40.84 99.8338 40.8467 99.8536 40.8467H101.413L99.847 43.3638C99.8073 43.4239 99.7809 43.4773 99.7545 43.5173C99.728 43.5574 99.7148 43.5975 99.7016 43.6308C99.6884 43.6709 99.6752 43.7043 99.6752 43.7377C99.6686 43.7711 99.662 43.8111 99.662 43.8579V43.9914C99.662 44.0849 99.6884 44.1583 99.7346 44.205C99.7809 44.2518 99.8404 44.2785 99.9263 44.2785H102.312C102.332 44.2785 102.351 44.2718 102.365 44.2651C102.378 44.2518 102.391 44.2317 102.404 44.205C102.417 44.1783 102.424 44.1449 102.431 44.1049C102.431 44.0648 102.437 44.0114 102.437 43.9513C102.437 43.8245 102.424 43.7377 102.404 43.6843ZM107.195 40.5062C107.221 40.4261 107.235 40.3727 107.248 40.326C107.254 40.2792 107.248 40.2458 107.228 40.2258C107.208 40.1991 107.169 40.1857 107.116 40.1791C107.063 40.1724 106.99 40.1657 106.891 40.1657C106.792 40.1657 106.719 40.1724 106.66 40.1724C106.607 40.1791 106.561 40.1857 106.534 40.1991C106.501 40.2125 106.481 40.2325 106.468 40.2525C106.455 40.2725 106.442 40.2992 106.435 40.3393L105.47 43.4773H105.464L104.479 40.3193C104.473 40.2926 104.459 40.2659 104.446 40.2458C104.433 40.2258 104.413 40.2058 104.387 40.1924C104.36 40.1857 104.314 40.1791 104.261 40.1724C104.208 40.1724 104.129 40.1657 104.036 40.1657C103.924 40.1657 103.832 40.1724 103.772 40.1724C103.706 40.1791 103.666 40.1924 103.64 40.2191C103.614 40.2392 103.6 40.2725 103.607 40.3193C103.614 40.3593 103.627 40.4194 103.653 40.4929L104.856 44.1249C104.869 44.1516 104.876 44.1717 104.882 44.1917C104.895 44.2117 104.909 44.2251 104.928 44.2384C104.942 44.2518 104.968 44.2584 104.995 44.2718C105.021 44.2785 105.054 44.2852 105.094 44.2852C105.133 44.2918 105.186 44.2985 105.246 44.2985C105.305 44.2985 105.378 44.2985 105.457 44.2985C105.563 44.2985 105.649 44.2985 105.715 44.2918C105.774 44.2918 105.827 44.2852 105.867 44.2718C105.906 44.2584 105.933 44.2451 105.946 44.2184C105.966 44.1984 105.979 44.1716 105.992 44.1316L107.195 40.5062ZM112.125 41.2607C112.039 41.0003 111.92 40.7866 111.768 40.6197C111.609 40.4461 111.411 40.3193 111.18 40.2392C110.942 40.1524 110.671 40.1123 110.367 40.1123C110.043 40.1123 109.759 40.1657 109.521 40.2592C109.277 40.3593 109.072 40.5062 108.906 40.6865C108.741 40.8734 108.616 41.1004 108.536 41.3675C108.451 41.6279 108.411 41.9283 108.411 42.2555C108.411 42.616 108.451 42.9298 108.523 43.1969C108.603 43.4573 108.721 43.6776 108.88 43.8445C109.039 44.0181 109.23 44.1449 109.462 44.2251C109.699 44.3119 109.977 44.3519 110.288 44.3519C110.611 44.3519 110.889 44.3052 111.133 44.205C111.378 44.1049 111.583 43.9647 111.748 43.7777C111.913 43.5908 112.032 43.3638 112.118 43.0967C112.204 42.8297 112.243 42.5225 112.243 42.182C112.243 41.8282 112.204 41.5277 112.125 41.2607ZM111.325 42.7829C111.292 42.9565 111.232 43.1101 111.153 43.2436C111.067 43.3705 110.955 43.4773 110.823 43.5507C110.684 43.6242 110.519 43.6642 110.314 43.6642C110.116 43.6642 109.944 43.6308 109.812 43.5641C109.68 43.4973 109.574 43.4038 109.495 43.277C109.415 43.1501 109.356 42.9966 109.323 42.8163C109.29 42.6427 109.27 42.4424 109.27 42.2154C109.27 42.0218 109.29 41.8415 109.323 41.6679C109.356 41.501 109.422 41.3475 109.501 41.2206C109.587 41.0938 109.693 40.9869 109.832 40.9135C109.964 40.8334 110.136 40.8 110.334 40.8C110.539 40.8 110.704 40.8334 110.836 40.9001C110.968 40.9669 111.08 41.0671 111.16 41.1872C111.239 41.3141 111.292 41.4676 111.332 41.6412C111.365 41.8215 111.378 42.0151 111.378 42.2288C111.378 42.4224 111.365 42.6093 111.325 42.7829ZM115.078 40.2926C115.078 40.2725 115.072 40.2525 115.058 40.2392C115.045 40.2258 115.025 40.2125 114.992 40.1991C114.959 40.1857 114.913 40.1791 114.867 40.1724C114.814 40.1724 114.748 40.1657 114.669 40.1657C114.589 40.1657 114.523 40.1724 114.464 40.1724C114.411 40.1791 114.371 40.1857 114.338 40.1991C114.312 40.2125 114.285 40.2258 114.272 40.2392C114.259 40.2525 114.252 40.2725 114.252 40.2926V43.1034C114.252 43.2102 114.246 43.2903 114.232 43.3571C114.213 43.4239 114.193 43.4773 114.166 43.5173C114.14 43.5507 114.107 43.5841 114.061 43.5975C114.014 43.6108 113.968 43.6242 113.915 43.6242C113.856 43.6242 113.81 43.6108 113.763 43.5975C113.724 43.5841 113.684 43.5708 113.658 43.5574C113.625 43.5441 113.598 43.5307 113.572 43.5173C113.545 43.4973 113.525 43.4973 113.506 43.4973C113.486 43.4973 113.466 43.4973 113.453 43.5107C113.44 43.524 113.426 43.5441 113.42 43.5708C113.413 43.5975 113.413 43.6375 113.406 43.6909C113.406 43.7377 113.4 43.7978 113.4 43.8712C113.4 43.9246 113.4 43.9714 113.406 44.0047C113.406 44.0448 113.413 44.0715 113.42 44.0982C113.426 44.1182 113.433 44.1383 113.44 44.1583C113.446 44.1716 113.459 44.185 113.473 44.1984C113.479 44.2117 113.506 44.2251 113.545 44.2451C113.585 44.2584 113.631 44.2785 113.677 44.2918C113.73 44.3052 113.783 44.3185 113.849 44.3252C113.909 44.3386 113.975 44.3386 114.034 44.3386C114.232 44.3386 114.391 44.3119 114.53 44.2584C114.662 44.205 114.768 44.1249 114.854 44.0181C114.933 43.9179 114.992 43.7911 115.025 43.6442C115.058 43.4906 115.078 43.3237 115.078 43.1435V40.2926Z" fill="white"/>
<path d="M47.3799 36.2401C47.3733 36.2001 47.3667 36.1667 47.3534 36.14C47.3468 36.1133 47.3336 36.0999 47.3138 36.0866C47.3006 36.0732 47.2808 36.0666 47.2675 36.0666H45.8072V34.9115H47.0297C47.0495 34.9115 47.0627 34.9048 47.0825 34.8982C47.0957 34.8848 47.1089 34.8715 47.1222 34.8447C47.1288 34.8247 47.1354 34.7913 47.142 34.7513C47.1486 34.7112 47.1486 34.6578 47.1486 34.5977C47.1486 34.5376 47.1486 34.4909 47.142 34.4442C47.1354 34.4041 47.1288 34.3707 47.1222 34.3507C47.1089 34.324 47.0957 34.3039 47.0825 34.2973C47.0627 34.2839 47.0495 34.2772 47.0297 34.2772H45.8072V33.2758H47.2543C47.2675 33.2758 47.2874 33.2691 47.3006 33.2624C47.3138 33.2491 47.327 33.229 47.3402 33.209C47.3468 33.1823 47.36 33.1489 47.36 33.1088C47.3667 33.0621 47.3733 33.0154 47.3733 32.9553C47.3733 32.8952 47.3667 32.8418 47.36 32.8017C47.36 32.755 47.3468 32.7283 47.3402 32.7016C47.327 32.6749 47.3138 32.6548 47.3006 32.6415C47.2874 32.6348 47.2675 32.6281 47.2543 32.6281H45.2257C45.1596 32.6281 45.1001 32.6482 45.0539 32.6882C45.0076 32.7283 44.9878 32.795 44.9878 32.8885V36.4538C44.9878 36.5473 45.0076 36.614 45.0539 36.6608C45.1001 36.7008 45.1596 36.7209 45.2257 36.7209H47.2675C47.2808 36.7209 47.3006 36.7142 47.3138 36.7008C47.3336 36.6942 47.3468 36.6741 47.3534 36.6474C47.3667 36.6207 47.3733 36.5873 47.3799 36.5473C47.3865 36.5072 47.3865 36.4538 47.3865 36.3937C47.3865 36.3336 47.3865 36.2802 47.3799 36.2401ZM52.2962 32.9419C52.3226 32.8685 52.3358 32.8084 52.349 32.7683C52.3557 32.7216 52.349 32.6882 52.3292 32.6615C52.3094 32.6415 52.2698 32.6215 52.2169 32.6148C52.164 32.6081 52.0913 32.6081 51.9922 32.6081C51.8931 32.6081 51.8204 32.6081 51.7609 32.6148C51.7081 32.6215 51.6618 32.6281 51.6354 32.6415C51.6024 32.6548 51.5825 32.6682 51.5693 32.6949C51.5561 32.7149 51.5429 32.7416 51.5363 32.7817L50.5715 35.9197H50.5649L49.5803 32.7617C49.5737 32.7283 49.5605 32.7082 49.5473 32.6815C49.5341 32.6615 49.5142 32.6482 49.4878 32.6348C49.4548 32.6281 49.4151 32.6215 49.3623 32.6148C49.3094 32.6081 49.2301 32.6081 49.1376 32.6081C49.0253 32.6081 48.9393 32.6081 48.8733 32.6148C48.8138 32.6215 48.7675 32.6348 48.7411 32.6548C48.7147 32.6815 48.7015 32.7149 48.7081 32.755C48.7147 32.8017 48.7279 32.8618 48.7543 32.9353L49.957 36.5673C49.9702 36.594 49.9768 36.614 49.9834 36.6341C49.9966 36.6474 50.0098 36.6674 50.0297 36.6808C50.0429 36.6942 50.0627 36.7008 50.0957 36.7075C50.1156 36.7209 50.1552 36.7275 50.1949 36.7275C50.2345 36.7342 50.2874 36.7342 50.3468 36.7342C50.4063 36.7409 50.479 36.7409 50.5583 36.7409C50.664 36.7409 50.7499 36.7342 50.816 36.7342C50.8821 36.7275 50.9283 36.7209 50.968 36.7142C51.0076 36.7008 51.0341 36.6808 51.0473 36.6608C51.0671 36.6407 51.0803 36.6074 51.0869 36.574L52.2962 32.9419ZM56.816 36.5272C56.8028 36.4872 56.783 36.4271 56.7499 36.347L56.4129 35.5458C56.3733 35.4456 56.3336 35.3588 56.2874 35.2787C56.2477 35.2053 56.2015 35.1385 56.1552 35.0784C56.109 35.0183 56.0627 34.9649 56.0032 34.9249C55.9504 34.8781 55.8975 34.8447 55.838 34.818C55.9636 34.778 56.0693 34.7246 56.1684 34.6578C56.2676 34.591 56.3469 34.5176 56.4195 34.4241C56.4856 34.3373 56.5385 34.2372 56.5715 34.1237C56.6046 34.0102 56.6244 33.8833 56.6244 33.7498C56.6244 33.5896 56.598 33.4427 56.5517 33.3158C56.4988 33.189 56.4328 33.0821 56.3402 32.9953C56.2477 32.9019 56.142 32.8284 56.0098 32.7683C55.8777 32.7149 55.7323 32.6749 55.5671 32.6482C55.5143 32.6415 55.4482 32.6348 55.3821 32.6348C55.3094 32.6281 55.2235 32.6281 55.1178 32.6281H54.0671C54.001 32.6281 53.9416 32.6482 53.8953 32.6882C53.8491 32.7283 53.8226 32.795 53.8226 32.8885V36.6074C53.8226 36.6274 53.8358 36.6474 53.8424 36.6608C53.8557 36.6808 53.8821 36.6942 53.9085 36.7008C53.9416 36.7142 53.9812 36.7209 54.0407 36.7275C54.0869 36.7342 54.1596 36.7409 54.2389 36.7409C54.3182 36.7409 54.3843 36.7342 54.4372 36.7275C54.49 36.7209 54.5297 36.7142 54.5627 36.7008C54.5891 36.6942 54.6156 36.6808 54.6288 36.6608C54.642 36.6474 54.6486 36.6274 54.6486 36.6074V35.045H54.9063C54.9922 35.045 55.0715 35.0584 55.1376 35.0851C55.2037 35.1118 55.2632 35.1519 55.316 35.2053C55.3623 35.2654 55.4085 35.3321 55.4548 35.4123C55.4944 35.4924 55.5407 35.5792 55.5803 35.686L55.9438 36.6007C55.9504 36.6207 55.9636 36.6474 55.9768 36.6674C55.99 36.6808 56.0099 36.6942 56.0429 36.7075C56.0693 36.7209 56.109 36.7275 56.1618 36.7342C56.2147 36.7342 56.2874 36.7409 56.3733 36.7409C56.479 36.7409 56.5583 36.7342 56.6244 36.7342C56.6839 36.7275 56.7235 36.7209 56.7566 36.7075C56.7896 36.7008 56.8094 36.6875 56.816 36.6674C56.8226 36.6541 56.8292 36.6341 56.8292 36.614C56.8292 36.5873 56.8226 36.5606 56.816 36.5272ZM55.7257 34.0769C55.6927 34.1437 55.653 34.2105 55.5936 34.2572C55.5341 34.3106 55.4614 34.3507 55.3755 34.3841C55.2896 34.4108 55.1839 34.4241 55.0715 34.4241H54.6486V33.2624H55.0187C55.1112 33.2624 55.1839 33.2691 55.2367 33.2691C55.2896 33.2758 55.3424 33.2891 55.3821 33.2958C55.5209 33.3358 55.62 33.4026 55.6795 33.4961C55.7389 33.5896 55.772 33.7031 55.772 33.8366C55.772 33.9234 55.7521 34.0035 55.7257 34.0769ZM61.8579 33.7031C61.7786 33.4427 61.6596 33.229 61.5011 33.0554C61.3425 32.8885 61.1442 32.7617 60.913 32.6749C60.6751 32.5947 60.4041 32.5547 60.1002 32.5547C59.7764 32.5547 59.4922 32.6014 59.2544 32.7016C59.0099 32.8017 58.805 32.9419 58.6398 33.1289C58.4746 33.3158 58.3491 33.5428 58.2698 33.8032C58.1839 34.0703 58.1442 34.364 58.1442 34.6979C58.1442 35.0584 58.1839 35.3722 58.2632 35.6326C58.3358 35.8996 58.4548 36.1133 58.6134 36.2869C58.772 36.4538 58.9636 36.5807 59.2015 36.6674C59.4328 36.7476 59.7103 36.7943 60.0209 36.7943C60.3447 36.7943 60.6222 36.7409 60.8667 36.6474C61.1112 36.5473 61.316 36.4071 61.4812 36.2201C61.6464 36.0332 61.7654 35.8062 61.8513 35.5391C61.9372 35.2654 61.9768 34.9649 61.9768 34.6244C61.9768 34.2706 61.9372 33.9634 61.8579 33.7031ZM61.0649 35.2253C61.0253 35.3989 60.9658 35.5525 60.8865 35.6793C60.8006 35.8128 60.6883 35.913 60.5561 35.9931C60.4174 36.0666 60.2522 36.1066 60.0473 36.1066C59.8491 36.1066 59.6773 36.0732 59.5451 36.0065C59.4129 35.9397 59.3072 35.8462 59.2279 35.7127C59.1486 35.5925 59.0892 35.439 59.0561 35.2587C59.0231 35.0851 59.0033 34.8781 59.0033 34.6578C59.0033 34.4642 59.0231 34.2839 59.0561 34.1103C59.0892 33.9367 59.1486 33.7899 59.2345 33.663C59.3204 33.5295 59.4262 33.4293 59.5649 33.3559C59.6971 33.2758 59.8689 33.2357 60.0737 33.2357C60.272 33.2357 60.4372 33.2691 60.5693 33.3425C60.7081 33.4093 60.8138 33.5028 60.8931 33.6296C60.9724 33.7565 61.0319 33.9034 61.0649 34.0836C61.098 34.2572 61.1112 34.4575 61.1112 34.6712C61.1112 34.8648 61.098 35.0517 61.0649 35.2253ZM66.3381 33.4226C66.2852 33.2824 66.2191 33.1689 66.1332 33.0688C66.0473 32.9686 65.9416 32.8885 65.816 32.8218C65.6905 32.755 65.5716 32.7082 65.446 32.6882C65.3271 32.6615 65.2213 32.6482 65.1354 32.6415C65.0495 32.6281 64.957 32.6281 64.8645 32.6281H63.9063C63.8271 32.6281 63.761 32.6548 63.7081 32.7016C63.6552 32.7483 63.6288 32.8218 63.6288 32.9219V36.6074C63.6288 36.6274 63.6354 36.6474 63.6486 36.6608C63.6619 36.6808 63.6817 36.6942 63.7147 36.7008C63.7478 36.7142 63.7874 36.7209 63.8403 36.7275C63.8931 36.7342 63.9592 36.7409 64.0385 36.7409C64.1244 36.7409 64.1905 36.7342 64.2434 36.7275C64.2962 36.7209 64.3359 36.7142 64.3623 36.7008C64.3953 36.6942 64.4218 36.6808 64.435 36.6608C64.4482 36.6474 64.4548 36.6274 64.4548 36.6074V35.2988H64.7918C65.0561 35.2988 65.2874 35.2654 65.4856 35.2053C65.6839 35.1452 65.8491 35.0517 65.9879 34.9249C66.12 34.8047 66.2257 34.6578 66.2984 34.4775C66.3645 34.3039 66.4042 34.097 66.4042 33.87C66.4042 33.7031 66.3777 33.5562 66.3381 33.4226ZM65.4989 34.2238C65.4724 34.3106 65.4262 34.3907 65.3667 34.4508C65.3138 34.5176 65.2412 34.5643 65.1486 34.6044C65.0627 34.6378 64.957 34.6578 64.8249 34.6578H64.4548V33.2691H64.805C64.8909 33.2691 64.9702 33.2758 65.0495 33.2891C65.1354 33.2958 65.2081 33.3292 65.2808 33.3692C65.3535 33.416 65.4196 33.4827 65.4658 33.5762C65.5187 33.6697 65.5451 33.7832 65.5451 33.9301C65.5451 34.0369 65.5253 34.1304 65.4989 34.2238ZM70.3293 35.0651C70.2764 34.9449 70.2103 34.8381 70.131 34.7446C70.0517 34.6578 69.9592 34.5777 69.8535 34.5176C69.7478 34.4508 69.642 34.3974 69.5363 34.344C69.424 34.2906 69.3183 34.2439 69.2125 34.1971C69.1068 34.1571 69.0143 34.1036 68.935 34.0569C68.8557 34.0035 68.783 33.9434 68.7368 33.8766C68.6905 33.8099 68.6641 33.7298 68.6641 33.643C68.6641 33.5829 68.6773 33.5228 68.6971 33.4694C68.7169 33.416 68.75 33.3692 68.7962 33.3292C68.8425 33.2891 68.8954 33.2557 68.9614 33.2357C69.0341 33.2157 69.1068 33.2023 69.1993 33.2023C69.3116 33.2023 69.4174 33.2157 69.5165 33.2424C69.609 33.2758 69.6949 33.3025 69.7676 33.3425C69.8403 33.3759 69.8998 33.4093 69.9526 33.436C70.0055 33.4627 70.0385 33.4827 70.065 33.4827C70.0848 33.4827 70.1046 33.4761 70.1178 33.4627C70.131 33.4493 70.1442 33.4293 70.1509 33.4026C70.1575 33.3759 70.1641 33.3358 70.1641 33.2958C70.1707 33.2557 70.1707 33.2023 70.1707 33.1422C70.1707 33.0888 70.1707 33.0421 70.1641 33.002C70.1641 32.9686 70.1575 32.9353 70.1575 32.9152C70.1509 32.8885 70.1443 32.8685 70.1376 32.8551C70.131 32.8418 70.1112 32.8218 70.0914 32.8017C70.0716 32.7817 70.0319 32.755 69.9658 32.7216C69.8998 32.6882 69.8271 32.6615 69.7412 32.6348C69.6619 32.6081 69.5694 32.5881 69.4768 32.5747C69.3777 32.5614 69.2852 32.5547 69.1861 32.5547C69.0011 32.5547 68.8227 32.5814 68.6575 32.6281C68.4923 32.6749 68.3535 32.7483 68.2279 32.8485C68.1024 32.9419 68.0099 33.0688 67.9372 33.2157C67.8645 33.3626 67.8315 33.5361 67.8315 33.7364C67.8315 33.9034 67.8513 34.0502 67.9042 34.1704C67.9504 34.2973 68.0165 34.4041 68.1024 34.4909C68.1817 34.5777 68.2676 34.6578 68.3733 34.7246C68.4724 34.7847 68.5782 34.8447 68.6905 34.8915C68.7962 34.9449 68.902 34.9916 69.0077 35.0384C69.1068 35.0851 69.1993 35.1318 69.2786 35.1853C69.3579 35.2387 69.424 35.2921 69.4768 35.3588C69.5231 35.4256 69.5495 35.5057 69.5495 35.5992C69.5495 35.6793 69.5363 35.7528 69.5033 35.8195C69.4769 35.8863 69.4372 35.9397 69.3777 35.9798C69.3249 36.0265 69.2588 36.0599 69.1729 36.0866C69.1002 36.1066 69.0077 36.12 68.9086 36.12C68.7566 36.12 68.6244 36.1066 68.5055 36.0666C68.3865 36.0332 68.2874 35.9931 68.2081 35.9531C68.1222 35.913 68.0561 35.8729 68.0033 35.8396C67.9504 35.8062 67.9108 35.7861 67.8777 35.7861C67.8579 35.7861 67.8381 35.7928 67.8249 35.8062C67.805 35.8128 67.7984 35.8329 67.7852 35.8596C67.7786 35.893 67.772 35.9263 67.7654 35.9664C67.7588 36.0131 67.7588 36.0666 67.7588 36.1333C67.7588 36.2335 67.7654 36.3069 67.7786 36.3603C67.7852 36.4071 67.805 36.4471 67.8315 36.4738C67.8645 36.5005 67.9042 36.5339 67.9702 36.574C68.0297 36.6074 68.1024 36.6407 68.1949 36.6741C68.2874 36.7075 68.3931 36.7342 68.5121 36.7609C68.6376 36.781 68.7632 36.7943 68.902 36.7943C69.1134 36.7943 69.305 36.7676 69.4901 36.7075C69.6685 36.6541 69.8271 36.574 69.9658 36.4672C70.098 36.3536 70.2037 36.2201 70.283 36.0599C70.3623 35.8996 70.402 35.706 70.402 35.4924C70.402 35.3255 70.3821 35.1853 70.3293 35.0651ZM74.9416 36.5272C74.9284 36.5005 74.902 36.4404 74.8557 36.3537L73.6465 34.5042L74.7566 33.0354C74.8095 32.9553 74.8425 32.8952 74.8623 32.8551C74.8822 32.8151 74.8888 32.7817 74.8888 32.7416C74.8888 32.7216 74.8821 32.7016 74.8689 32.6882C74.8557 32.6682 74.8359 32.6548 74.8029 32.6415C74.7698 32.6348 74.7302 32.6215 74.6707 32.6148C74.6178 32.6081 74.5518 32.6081 74.4658 32.6081C74.3866 32.6081 74.3205 32.6081 74.2676 32.6148C74.2147 32.6215 74.1751 32.6281 74.1354 32.6348C74.1024 32.6482 74.076 32.6615 74.0562 32.6815C74.0363 32.6949 74.0165 32.7216 74.0033 32.7483L72.8139 34.4842V32.7416C72.8139 32.7216 72.8139 32.7016 72.8006 32.6815C72.7874 32.6682 72.7676 32.6548 72.7346 32.6415C72.7015 32.6348 72.6619 32.6215 72.609 32.6148C72.5562 32.6081 72.4901 32.6081 72.4108 32.6081C72.3315 32.6081 72.2588 32.6081 72.2125 32.6148C72.1531 32.6215 72.1134 32.6348 72.0804 32.6415C72.0539 32.6548 72.0275 32.6682 72.0143 32.6815C72.0011 32.7016 71.9945 32.7216 71.9945 32.7416V36.6007C71.9945 36.6207 72.0011 36.6407 72.0143 36.6608C72.0275 36.6741 72.0539 36.6942 72.0804 36.7008C72.1134 36.7142 72.1531 36.7209 72.2125 36.7275C72.2588 36.7342 72.3315 36.7409 72.4108 36.7409C72.4901 36.7409 72.5562 36.7342 72.609 36.7275C72.6619 36.7209 72.7015 36.7142 72.7346 36.7008C72.7676 36.6942 72.7874 36.6741 72.8006 36.6608C72.8139 36.6407 72.8139 36.6207 72.8139 36.6007V34.6578L74.0429 36.6007C74.0562 36.6274 74.076 36.6541 74.1024 36.6741C74.1288 36.6942 74.1685 36.7142 74.228 36.7209C74.294 36.7342 74.3866 36.7409 74.5253 36.7409C74.6112 36.7409 74.6839 36.7342 74.7368 36.7275C74.7896 36.7209 74.8359 36.7142 74.8689 36.7008C74.902 36.6942 74.9218 36.6741 74.935 36.6608C74.9482 36.6407 74.9548 36.6207 74.9548 36.594C74.9548 36.5807 74.9482 36.5539 74.9416 36.5272ZM77.2874 32.7416C77.2874 32.7216 77.2808 32.7016 77.2676 32.6815C77.2544 32.6682 77.2346 32.6548 77.2015 32.6415C77.1685 32.6348 77.1289 32.6215 77.076 32.6148C77.0231 32.6081 76.957 32.6081 76.8777 32.6081C76.7985 32.6081 76.7324 32.6081 76.6795 32.6148C76.6266 32.6215 76.587 32.6348 76.554 32.6415C76.5209 32.6548 76.4945 32.6682 76.4813 32.6815C76.4681 32.7016 76.4614 32.7216 76.4614 32.7416V36.6074C76.4614 36.6274 76.4681 36.6474 76.4813 36.6608C76.4945 36.6808 76.5209 36.6942 76.5474 36.7008C76.5804 36.7142 76.62 36.7209 76.6795 36.7275C76.7324 36.7342 76.7985 36.7409 76.8777 36.7409C76.957 36.7409 77.0231 36.7342 77.076 36.7275C77.1289 36.7209 77.1685 36.7142 77.2015 36.7008C77.2346 36.6942 77.2544 36.6808 77.2676 36.6608C77.2808 36.6474 77.2874 36.6274 77.2874 36.6074V32.7416ZM83.869 35.0651C83.8161 34.9449 83.75 34.8381 83.6707 34.7446C83.5914 34.6578 83.4989 34.5777 83.3932 34.5176C83.2875 34.4508 83.1817 34.3974 83.076 34.344C82.9637 34.2906 82.8579 34.2439 82.7522 34.1971C82.6531 34.1571 82.554 34.1036 82.4747 34.0569C82.3888 34.0035 82.3293 33.9434 82.2764 33.8766C82.2302 33.8099 82.2038 33.7298 82.2038 33.643C82.2038 33.5829 82.217 33.5228 82.2368 33.4694C82.2566 33.416 82.2897 33.3692 82.3359 33.3292C82.3822 33.2891 82.435 33.2557 82.5077 33.2357C82.5738 33.2157 82.6465 33.2023 82.739 33.2023C82.8513 33.2023 82.9571 33.2157 83.0562 33.2424C83.1487 33.2758 83.2346 33.3025 83.3073 33.3425C83.38 33.3759 83.446 33.4093 83.4923 33.436C83.5452 33.4627 83.5782 33.4827 83.6046 33.4827C83.6245 33.4827 83.6443 33.4761 83.6575 33.4627C83.6707 33.4493 83.6839 33.4293 83.6905 33.4026C83.6971 33.3759 83.7038 33.3358 83.7038 33.2958C83.7104 33.2557 83.7104 33.2023 83.7104 33.1422C83.7104 33.0888 83.7104 33.0421 83.7038 33.002C83.7038 32.9686 83.7038 32.9353 83.6972 32.9152C83.6905 32.8885 83.6839 32.8685 83.6773 32.8551C83.6707 32.8418 83.6575 32.8218 83.6377 32.8017C83.6112 32.7817 83.5716 32.755 83.5055 32.7216C83.4394 32.6882 83.3668 32.6615 83.2808 32.6348C83.2016 32.6081 83.109 32.5881 83.0165 32.5747C82.9174 32.5614 82.8249 32.5547 82.7258 32.5547C82.5408 32.5547 82.3623 32.5814 82.1971 32.6281C82.0319 32.6749 81.8866 32.7483 81.7676 32.8485C81.6421 32.9419 81.5496 33.0688 81.4769 33.2157C81.4042 33.3626 81.3645 33.5361 81.3645 33.7364C81.3645 33.9034 81.391 34.0502 81.4438 34.1704C81.4901 34.2973 81.5562 34.4041 81.6421 34.4909C81.7214 34.5777 81.8139 34.6578 81.913 34.7246C82.0121 34.7847 82.1179 34.8447 82.2302 34.8915C82.3359 34.9449 82.4416 34.9916 82.5474 35.0384C82.6465 35.0851 82.739 35.1318 82.8183 35.1853C82.8976 35.2387 82.9637 35.2921 83.0165 35.3588C83.0628 35.4256 83.0892 35.5057 83.0892 35.5992C83.0892 35.6793 83.076 35.7528 83.043 35.8195C83.0165 35.8863 82.9769 35.9397 82.9174 35.9798C82.8645 36.0265 82.7985 36.0599 82.7192 36.0866C82.6399 36.1066 82.5474 36.12 82.4482 36.12C82.2963 36.12 82.1641 36.1066 82.0452 36.0666C81.9262 36.0332 81.8337 35.9931 81.7478 35.9531C81.6619 35.913 81.5958 35.8729 81.543 35.8396C81.4901 35.8062 81.4505 35.7861 81.4174 35.7861C81.3976 35.7861 81.3778 35.7928 81.3645 35.8062C81.3447 35.8128 81.3381 35.8329 81.3249 35.8596C81.3183 35.893 81.3117 35.9263 81.3051 35.9664C81.2985 36.0131 81.2985 36.0666 81.2985 36.1333C81.2985 36.2335 81.3051 36.3069 81.3183 36.3603C81.3315 36.4071 81.3447 36.4471 81.3778 36.4738C81.4042 36.5005 81.4438 36.5339 81.5099 36.574C81.5694 36.6074 81.6421 36.6407 81.7412 36.6741C81.8271 36.7075 81.9328 36.7342 82.0518 36.7609C82.1773 36.781 82.3029 36.7943 82.4416 36.7943C82.6531 36.7943 82.8447 36.7676 83.0297 36.7075C83.2082 36.6541 83.3668 36.574 83.4989 36.4672C83.6377 36.3536 83.7434 36.2201 83.8227 36.0599C83.902 35.8996 83.9416 35.706 83.9416 35.4924C83.9416 35.3255 83.9218 35.1853 83.869 35.0651ZM88.4813 36.5272C88.4681 36.5005 88.4417 36.4404 88.3954 36.3537L87.1861 34.5042L88.2963 33.0354C88.3491 32.9553 88.3822 32.8952 88.402 32.8551C88.4218 32.8151 88.4284 32.7817 88.4284 32.7416C88.4284 32.7216 88.4218 32.7016 88.4086 32.6882C88.3954 32.6682 88.3756 32.6548 88.3425 32.6415C88.3095 32.6348 88.2698 32.6215 88.217 32.6148C88.1575 32.6081 88.0914 32.6081 88.0055 32.6081C87.9262 32.6081 87.8602 32.6081 87.8073 32.6148C87.7544 32.6215 87.7082 32.6281 87.6751 32.6348C87.6487 32.6482 87.6157 32.6615 87.5958 32.6815C87.576 32.6949 87.5562 32.7216 87.543 32.7483L86.3602 34.4842V32.7416C86.3602 32.7216 86.3535 32.7016 86.3403 32.6815C86.3271 32.6682 86.3073 32.6548 86.2742 32.6415C86.2412 32.6348 86.2016 32.6215 86.1487 32.6148C86.0958 32.6081 86.0298 32.6081 85.9505 32.6081C85.8712 32.6081 85.8051 32.6081 85.7522 32.6148C85.6927 32.6215 85.6531 32.6348 85.6201 32.6415C85.5936 32.6548 85.5672 32.6682 85.554 32.6815C85.5408 32.7016 85.5342 32.7216 85.5342 32.7416V36.6007C85.5342 36.6207 85.5408 36.6407 85.554 36.6608C85.5672 36.6741 85.5936 36.6942 85.6201 36.7008C85.6531 36.7142 85.6927 36.7209 85.7522 36.7275C85.8051 36.7342 85.8712 36.7409 85.9505 36.7409C86.0298 36.7409 86.0958 36.7342 86.1487 36.7275C86.2016 36.7209 86.2412 36.7142 86.2742 36.7008C86.3073 36.6942 86.3271 36.6741 86.3403 36.6608C86.3535 36.6407 86.3602 36.6207 86.3602 36.6007V34.6578L87.5826 36.6007C87.5958 36.6274 87.6157 36.6541 87.6421 36.6741C87.6685 36.6942 87.7082 36.7142 87.7743 36.7209C87.8337 36.7342 87.9262 36.7409 88.065 36.7409C88.1509 36.7409 88.217 36.7342 88.2765 36.7275C88.3359 36.7209 88.3756 36.7142 88.4086 36.7008C88.4417 36.6942 88.4615 36.6741 88.4747 36.6608C88.4879 36.6407 88.4945 36.6207 88.4945 36.594C88.4945 36.5807 88.4879 36.5539 88.4813 36.5272ZM92.2214 36.2134C92.2148 36.1667 92.2082 36.1333 92.195 36.1066C92.1884 36.0799 92.1685 36.0599 92.1553 36.0532C92.1421 36.0399 92.1223 36.0332 92.1025 36.0332H90.8271V32.7416C90.8271 32.7216 90.8205 32.7016 90.8073 32.6815C90.7941 32.6682 90.7743 32.6548 90.7412 32.6415C90.7082 32.6348 90.6685 32.6215 90.6157 32.6148C90.5628 32.6081 90.4967 32.6081 90.4174 32.6081C90.3381 32.6081 90.2721 32.6081 90.2192 32.6148C90.1597 32.6215 90.1201 32.6348 90.087 32.6415C90.0606 32.6548 90.0342 32.6682 90.021 32.6815C90.0077 32.7016 90.0011 32.7216 90.0011 32.7416V36.4538C90.0011 36.5473 90.0276 36.614 90.0738 36.6608C90.1201 36.7008 90.1796 36.7209 90.2456 36.7209H92.1025C92.1223 36.7209 92.1421 36.7142 92.1553 36.7008C92.1685 36.6875 92.1884 36.6674 92.195 36.6407C92.2082 36.6074 92.2148 36.574 92.2214 36.5339C92.228 36.4872 92.228 36.4338 92.228 36.3737C92.228 36.3069 92.228 36.2535 92.2214 36.2134ZM95.7368 32.7817C95.7302 32.7416 95.7104 32.7082 95.6906 32.6882C95.6774 32.6615 95.6509 32.6482 95.6047 32.6348C95.565 32.6215 95.5122 32.6148 95.4329 32.6148C95.3668 32.6081 95.2677 32.6081 95.1421 32.6081C95.0364 32.6081 94.9505 32.6081 94.8844 32.6148C94.8183 32.6148 94.7721 32.6215 94.7324 32.6348C94.6994 32.6482 94.673 32.6615 94.6531 32.6882C94.6399 32.7082 94.6201 32.735 94.6069 32.775L93.358 36.4071C93.3381 36.4738 93.3183 36.5339 93.3117 36.5807C93.3051 36.6207 93.3117 36.6608 93.3381 36.6808C93.358 36.7075 93.3976 36.7209 93.4505 36.7275C93.5033 36.7342 93.576 36.7409 93.6752 36.7409C93.7611 36.7409 93.8337 36.7342 93.8932 36.7342C93.9461 36.7275 93.9923 36.7209 94.0188 36.7075C94.0518 36.6942 94.0716 36.6808 94.0848 36.6608C94.0981 36.6407 94.1113 36.614 94.1179 36.5873L94.3756 35.7861H95.8954L96.1663 36.6074C96.1796 36.6341 96.1862 36.6608 96.1994 36.6741C96.2126 36.6942 96.2324 36.7075 96.2655 36.7142C96.2985 36.7209 96.3448 36.7275 96.4042 36.7342C96.4637 36.7342 96.543 36.7409 96.6487 36.7409C96.7545 36.7409 96.8338 36.7342 96.8932 36.7275C96.9527 36.7275 96.9923 36.7142 97.0122 36.6875C97.0386 36.6674 97.0452 36.6341 97.0386 36.5873C97.032 36.5473 97.0188 36.4872 96.9923 36.4071L95.7368 32.7817ZM95.7038 35.1452H94.554L95.1289 33.4093L95.7038 35.1452ZM101.75 33.7565C101.658 33.5094 101.532 33.3025 101.36 33.1355C101.182 32.9686 100.97 32.8418 100.719 32.755C100.468 32.6682 100.164 32.6281 99.8007 32.6281H98.7633C98.6972 32.6281 98.6377 32.6482 98.5915 32.6882C98.5452 32.7283 98.5188 32.795 98.5188 32.8885V36.4538C98.5188 36.5473 98.5452 36.614 98.5915 36.6608C98.6377 36.7008 98.6972 36.7209 98.7633 36.7209H99.728C100.091 36.7209 100.402 36.6808 100.66 36.6007C100.917 36.5206 101.142 36.4004 101.321 36.2268C101.506 36.0599 101.644 35.8462 101.737 35.5725C101.836 35.3121 101.882 34.985 101.882 34.6111C101.882 34.2906 101.843 34.0035 101.75 33.7565ZM100.957 35.2587C100.904 35.439 100.832 35.5858 100.726 35.706C100.62 35.8262 100.495 35.913 100.336 35.9731C100.184 36.0332 99.9924 36.0599 99.7677 36.0599H99.3382V33.2758H99.7545C100.012 33.2758 100.21 33.3158 100.369 33.3826C100.521 33.4493 100.653 33.5428 100.752 33.6697C100.851 33.7899 100.924 33.9367 100.964 34.1037C101.01 34.2706 101.03 34.4442 101.03 34.6445C101.03 34.8781 101.003 35.0851 100.957 35.2587ZM108.391 36.1266C108.371 36.0799 108.338 36.0532 108.299 36.0532H106.607L108.153 33.5695C108.186 33.5094 108.219 33.4627 108.239 33.4226C108.259 33.3826 108.279 33.3425 108.292 33.3025C108.305 33.2624 108.318 33.2223 108.325 33.1823C108.325 33.1422 108.332 33.0888 108.332 33.0354V32.8818C108.332 32.8017 108.312 32.735 108.272 32.6949C108.226 32.6482 108.166 32.6281 108.08 32.6281H105.84C105.814 32.6281 105.794 32.6348 105.781 32.6415C105.761 32.6548 105.748 32.6749 105.735 32.7016C105.721 32.7283 105.715 32.7617 105.708 32.8017C105.702 32.8485 105.702 32.9019 105.702 32.962C105.702 33.022 105.702 33.0688 105.708 33.1155C105.715 33.1556 105.721 33.189 105.735 33.2157C105.748 33.2424 105.761 33.2624 105.781 33.2691C105.794 33.2824 105.814 33.2891 105.84 33.2891H107.4L105.827 35.8062C105.794 35.8663 105.761 35.913 105.741 35.9597C105.715 35.9998 105.695 36.0399 105.688 36.0732C105.675 36.1066 105.662 36.1467 105.655 36.1801C105.655 36.2134 105.649 36.2535 105.649 36.2936V36.4338C105.649 36.5272 105.675 36.6007 105.721 36.6474C105.761 36.6942 105.827 36.7209 105.913 36.7209H108.299C108.318 36.7209 108.338 36.7142 108.351 36.7008C108.365 36.6942 108.378 36.6741 108.391 36.6474C108.398 36.6207 108.411 36.5873 108.417 36.5473C108.417 36.5005 108.424 36.4538 108.424 36.387C108.424 36.2669 108.411 36.1801 108.391 36.1266ZM111.979 32.7817C111.966 32.7416 111.953 32.7082 111.933 32.6882C111.92 32.6615 111.887 32.6482 111.847 32.6348C111.807 32.6215 111.748 32.6148 111.675 32.6148C111.603 32.6081 111.503 32.6081 111.384 32.6081C111.279 32.6081 111.193 32.6081 111.127 32.6148C111.061 32.6148 111.008 32.6215 110.975 32.6348C110.935 32.6482 110.915 32.6615 110.895 32.6882C110.876 32.7082 110.862 32.735 110.849 32.775L109.6 36.4071C109.574 36.4738 109.561 36.5339 109.554 36.5807C109.547 36.6207 109.554 36.6608 109.574 36.6808C109.6 36.7075 109.633 36.7209 109.686 36.7275C109.746 36.7342 109.818 36.7409 109.917 36.7409C110.003 36.7409 110.076 36.7342 110.136 36.7342C110.188 36.7275 110.228 36.7209 110.261 36.7075C110.288 36.6942 110.314 36.6808 110.327 36.6608C110.34 36.6407 110.354 36.614 110.36 36.5873L110.618 35.7861H112.138L112.409 36.6074C112.415 36.6341 112.429 36.6608 112.442 36.6741C112.455 36.6942 112.475 36.7075 112.508 36.7142C112.541 36.7209 112.587 36.7275 112.64 36.7342C112.699 36.7342 112.785 36.7409 112.891 36.7409C112.99 36.7409 113.076 36.7342 113.129 36.7275C113.188 36.7275 113.235 36.7142 113.254 36.6875C113.281 36.6674 113.288 36.6341 113.281 36.5873C113.274 36.5473 113.254 36.4872 113.235 36.4071L111.979 32.7817ZM111.946 35.1452H110.796L111.371 33.4093L111.946 35.1452Z" fill="white"/>
<path d="M48.3447 28.4823C48.3381 28.4289 48.3315 28.3755 48.3116 28.3421C48.2984 28.3087 48.2786 28.282 48.2588 28.262C48.239 28.2486 48.2125 28.2419 48.1861 28.2419H46.1244V26.6129H47.8557C47.8821 26.6129 47.9019 26.6062 47.9284 26.5928C47.9482 26.5728 47.968 26.5461 47.9812 26.5127C47.9945 26.4793 48.0077 26.4326 48.0143 26.3792C48.0209 26.3191 48.0275 26.2523 48.0275 26.1655C48.0275 26.0787 48.0209 26.012 48.0143 25.9519C48.0077 25.8918 47.9945 25.845 47.9812 25.8117C47.968 25.7783 47.9482 25.7516 47.9284 25.7382C47.9019 25.7249 47.8821 25.7115 47.8557 25.7115H46.1244V24.3028H48.1663C48.1927 24.3028 48.2191 24.2961 48.239 24.2761C48.2588 24.2627 48.2786 24.236 48.2918 24.2026C48.305 24.1626 48.3182 24.1158 48.3249 24.0557C48.3315 24.0023 48.3315 23.9289 48.3315 23.8488C48.3315 23.7553 48.3315 23.6818 48.3249 23.6284C48.3182 23.5683 48.305 23.5216 48.2918 23.4815C48.2786 23.4482 48.2588 23.4215 48.239 23.4081C48.2191 23.3881 48.1927 23.3814 48.1663 23.3814H45.3116C45.2191 23.3814 45.1332 23.4148 45.0671 23.4682C45.0011 23.5283 44.968 23.6218 44.968 23.7553V28.7894C44.968 28.9229 45.0011 29.0164 45.0671 29.0698C45.1332 29.1299 45.2191 29.1633 45.3116 29.1633H48.1861C48.2125 29.1633 48.239 29.1499 48.2588 29.1366C48.2786 29.1166 48.2984 29.0965 48.3116 29.0565C48.3315 29.0231 48.3381 28.9764 48.3447 28.9163C48.3513 28.8562 48.3579 28.7894 48.3579 28.7026C48.3579 28.6158 48.3513 28.5424 48.3447 28.4823ZM55.2896 23.8287C55.3293 23.7219 55.3491 23.6418 55.3623 23.575C55.3689 23.5149 55.3623 23.4682 55.3359 23.4348C55.3028 23.4014 55.2566 23.3814 55.1773 23.368C55.1046 23.3614 54.9989 23.3547 54.8601 23.3547C54.7213 23.3547 54.6156 23.3547 54.5363 23.368C54.457 23.368 54.3976 23.3814 54.3513 23.4014C54.3117 23.4215 54.2786 23.4415 54.2654 23.4749C54.2456 23.5083 54.2324 23.5483 54.2191 23.595L52.8513 28.0283L51.457 23.575C51.4438 23.5283 51.424 23.4949 51.4108 23.4615C51.3909 23.4348 51.3645 23.4081 51.3249 23.3948C51.2852 23.3814 51.2257 23.368 51.1464 23.368C51.0672 23.3547 50.9614 23.3547 50.8293 23.3547C50.6707 23.3547 50.5451 23.3614 50.4592 23.368C50.3667 23.3747 50.3072 23.3948 50.2676 23.4281C50.2346 23.4548 50.2147 23.5016 50.2279 23.5683C50.2346 23.6284 50.2544 23.7152 50.2874 23.8221L51.9923 28.943C52.0055 28.9764 52.0121 29.0097 52.0253 29.0364C52.0385 29.0632 52.0583 29.0832 52.0848 29.1032C52.1112 29.1166 52.1443 29.1366 52.1773 29.1499C52.2169 29.1566 52.2632 29.1633 52.3227 29.17C52.3821 29.1767 52.4548 29.1833 52.5341 29.1833C52.62 29.1833 52.7191 29.19 52.8381 29.19C52.9835 29.19 53.109 29.1833 53.1949 29.1833C53.2874 29.1767 53.3601 29.1633 53.413 29.1499C53.4658 29.1299 53.5055 29.1099 53.5253 29.0765C53.5517 29.0431 53.5716 29.0097 53.5848 28.9563L55.2896 23.8287ZM61.6663 28.8829C61.6531 28.8361 61.6267 28.7494 61.5804 28.6358L61.098 27.5008C61.0452 27.3606 60.9857 27.2404 60.9262 27.1336C60.8667 27.0201 60.8073 26.9267 60.7412 26.8399C60.6751 26.7531 60.6024 26.6863 60.5231 26.6262C60.4504 26.5661 60.3711 26.5127 60.2852 26.4726C60.4637 26.4126 60.6222 26.3391 60.761 26.2456C60.8998 26.1588 61.0121 26.052 61.1046 25.9252C61.2037 25.7983 61.2764 25.6581 61.3227 25.4979C61.3689 25.3376 61.3954 25.164 61.3954 24.9704C61.3954 24.7367 61.3623 24.5364 61.2963 24.3562C61.2236 24.1826 61.1311 24.029 60.9989 23.8955C60.8733 23.7686 60.7148 23.6618 60.5297 23.5817C60.3447 23.5016 60.1399 23.4482 59.9086 23.4148C59.8293 23.4081 59.7434 23.3948 59.6443 23.3881C59.5451 23.3881 59.4262 23.3814 59.2742 23.3814H57.794C57.6949 23.3814 57.6156 23.4148 57.5495 23.4682C57.4835 23.5283 57.4504 23.6218 57.4504 23.7553V28.9964C57.4504 29.0298 57.457 29.0565 57.4769 29.0765C57.4901 29.1032 57.5231 29.1232 57.5694 29.1366C57.609 29.1499 57.6751 29.1633 57.7478 29.17C57.8205 29.1833 57.913 29.19 58.0253 29.19C58.1443 29.19 58.2368 29.1833 58.3095 29.17C58.3822 29.1633 58.4416 29.1499 58.4879 29.1366C58.5341 29.1232 58.5606 29.1032 58.5804 29.0765C58.6002 29.0565 58.6134 29.0298 58.6134 28.9964V26.7998H58.9703C59.0958 26.7998 59.2081 26.8198 59.3007 26.8532C59.3932 26.8933 59.4791 26.9534 59.5518 27.0268C59.6244 27.1069 59.6905 27.2004 59.7434 27.3139C59.8029 27.4207 59.8623 27.5542 59.9284 27.7011L60.4372 28.9897C60.4504 29.0231 60.4637 29.0565 60.4835 29.0832C60.5033 29.1099 60.5297 29.1299 60.576 29.1433C60.6156 29.1633 60.6751 29.17 60.7478 29.1767C60.8205 29.1833 60.9196 29.19 61.0452 29.19C61.1905 29.19 61.3095 29.1833 61.3954 29.1767C61.4813 29.17 61.5474 29.1633 61.587 29.1499C61.6333 29.1299 61.6597 29.1099 61.6729 29.0899C61.6861 29.0698 61.6927 29.0431 61.6927 29.0097C61.6927 28.9764 61.6861 28.9363 61.6663 28.8829ZM60.1333 25.4244C60.087 25.5313 60.0275 25.618 59.9482 25.6915C59.8623 25.7649 59.7632 25.8183 59.6377 25.8584C59.5121 25.8985 59.3667 25.9185 59.2015 25.9185H58.6134V24.2761H59.1355C59.2676 24.2761 59.3667 24.2827 59.446 24.2961C59.5187 24.3028 59.5848 24.3161 59.6443 24.3295C59.8425 24.3829 59.9813 24.4764 60.0672 24.6032C60.1531 24.7367 60.1927 24.897 60.1927 25.0906C60.1927 25.2108 60.1729 25.3243 60.1333 25.4244ZM68.7831 24.9037C68.6707 24.5364 68.5055 24.2293 68.2809 23.989C68.0628 23.7486 67.7853 23.5683 67.4483 23.4548C67.1179 23.3413 66.7412 23.2812 66.3051 23.2812C65.8491 23.2812 65.4527 23.348 65.109 23.4882C64.7654 23.6284 64.4813 23.8287 64.2434 24.0891C64.0121 24.3562 63.8403 24.67 63.7214 25.0439C63.6024 25.4177 63.543 25.8384 63.543 26.3057C63.543 26.8198 63.5958 27.2605 63.7082 27.6277C63.8205 28.0016 63.9857 28.3087 64.2038 28.5491C64.4284 28.7894 64.6993 28.9697 65.0364 29.0832C65.3668 29.2034 65.7566 29.2634 66.1994 29.2634C66.6487 29.2634 67.0452 29.1967 67.3888 29.0565C67.7324 28.9163 68.0231 28.716 68.2544 28.4556C68.4857 28.1885 68.6641 27.868 68.7764 27.4875C68.8954 27.1136 68.9549 26.6863 68.9549 26.2056C68.9549 25.7048 68.902 25.2709 68.7831 24.9037ZM67.6663 27.0535C67.6135 27.2939 67.5342 27.5142 67.4152 27.6945C67.2963 27.8814 67.1377 28.0283 66.9527 28.1351C66.761 28.2419 66.5231 28.2953 66.2324 28.2953C65.9482 28.2953 65.7104 28.2486 65.5253 28.1551C65.3337 28.0617 65.1817 27.9215 65.0694 27.7479C64.9571 27.5676 64.8778 27.354 64.8315 27.1002C64.7853 26.8465 64.7654 26.5661 64.7654 26.2456C64.7654 25.9786 64.7852 25.7249 64.8381 25.4778C64.8844 25.2375 64.9703 25.0238 65.0826 24.8436C65.2016 24.6633 65.3601 24.5164 65.5518 24.4096C65.7434 24.2961 65.9813 24.2427 66.2654 24.2427C66.5496 24.2427 66.7809 24.2961 66.9725 24.3896C67.1641 24.483 67.3095 24.6232 67.4284 24.8035C67.5408 24.9771 67.6201 25.1907 67.6663 25.4378C67.7126 25.6848 67.739 25.9652 67.739 26.2657C67.739 26.5461 67.7126 26.8065 67.6663 27.0535ZM75.1069 24.5031C75.0408 24.3094 74.9483 24.1492 74.8227 24.0023C74.7038 23.8621 74.5518 23.7486 74.38 23.6551C74.2016 23.5617 74.0298 23.5016 73.858 23.4682C73.6862 23.4281 73.5408 23.4081 73.4152 23.4014C73.2963 23.3881 73.1641 23.3814 73.032 23.3814H71.6839C71.565 23.3814 71.4725 23.4148 71.3998 23.4882C71.3271 23.555 71.2875 23.6618 71.2875 23.802V28.9964C71.2875 29.0298 71.3007 29.0565 71.3139 29.0765C71.3337 29.1032 71.3668 29.1232 71.4064 29.1366C71.4527 29.1499 71.5121 29.1633 71.5914 29.17C71.6641 29.1833 71.7566 29.19 71.869 29.19C71.9879 29.19 72.0804 29.1833 72.1531 29.17C72.2258 29.1633 72.2853 29.1499 72.3315 29.1366C72.3712 29.1232 72.4042 29.1032 72.424 29.0765C72.4439 29.0565 72.4505 29.0298 72.4505 28.9964V27.1537H72.9328C73.3095 27.1537 73.6333 27.1136 73.9108 27.0201C74.1884 26.9333 74.4262 26.7998 74.6179 26.6329C74.8095 26.4593 74.9549 26.2456 75.054 25.9986C75.1531 25.7516 75.206 25.4645 75.206 25.1373C75.206 24.9037 75.1729 24.69 75.1069 24.5031ZM73.9306 25.6381C73.8844 25.7649 73.8249 25.8718 73.7456 25.9586C73.6663 26.052 73.5672 26.1188 73.4417 26.1722C73.3161 26.2256 73.1575 26.2456 72.9725 26.2456H72.4505V24.2894H72.9461C73.065 24.2894 73.184 24.2961 73.2963 24.3161C73.4152 24.3295 73.521 24.3695 73.6267 24.4363C73.7258 24.4964 73.8117 24.5899 73.8844 24.7234C73.9571 24.8502 73.9901 25.0172 73.9901 25.2241C73.9901 25.371 73.9703 25.5112 73.9306 25.6381ZM80.75 26.8198C80.6774 26.6529 80.5849 26.4994 80.4725 26.3792C80.3536 26.2523 80.2214 26.1388 80.076 26.052C79.9307 25.9586 79.7787 25.8784 79.6267 25.805C79.4747 25.7382 79.3227 25.6715 79.1774 25.6047C79.0254 25.5379 78.8932 25.4712 78.7809 25.3977C78.6619 25.3243 78.5694 25.2442 78.4967 25.1507C78.4307 25.0572 78.3976 24.9437 78.3976 24.8169C78.3976 24.7301 78.4108 24.6499 78.4439 24.5698C78.4703 24.4964 78.5232 24.4296 78.5826 24.3695C78.6487 24.3161 78.728 24.2761 78.8205 24.2427C78.913 24.2093 79.0254 24.1959 79.1509 24.1959C79.3161 24.1959 79.4615 24.216 79.6003 24.256C79.7324 24.2961 79.8514 24.3428 79.9571 24.3896C80.0628 24.4363 80.1487 24.483 80.2148 24.5298C80.2875 24.5632 80.3404 24.5899 80.3734 24.5899C80.4064 24.5899 80.4329 24.5765 80.4461 24.5632C80.4725 24.5431 80.4857 24.5164 80.4923 24.4764C80.5056 24.4363 80.5122 24.3896 80.5122 24.3295C80.5188 24.2694 80.5254 24.1959 80.5254 24.1091C80.5254 24.0357 80.5188 23.9689 80.5188 23.9155C80.5122 23.8621 80.5056 23.8221 80.5056 23.7887C80.4923 23.7553 80.4857 23.7219 80.4791 23.7085C80.4659 23.6818 80.4461 23.6551 80.413 23.6284C80.3866 23.6017 80.3271 23.5617 80.2346 23.5149C80.1421 23.4749 80.0364 23.4348 79.9241 23.3948C79.8051 23.3614 79.6796 23.3347 79.5408 23.3146C79.4086 23.2946 79.2699 23.2812 79.1377 23.2812C78.8734 23.2812 78.6223 23.3146 78.391 23.3814C78.1531 23.4548 77.9549 23.555 77.7765 23.6952C77.6047 23.8287 77.4725 24.0023 77.3668 24.216C77.2677 24.4229 77.2148 24.67 77.2148 24.9437C77.2148 25.1841 77.2544 25.391 77.3205 25.5646C77.3932 25.7382 77.4857 25.8851 77.5981 26.012C77.7104 26.1388 77.8426 26.2523 77.9879 26.3391C78.1333 26.4326 78.2787 26.5127 78.4307 26.5861C78.5826 26.6596 78.7346 26.7197 78.88 26.7864C79.0254 26.8532 79.1509 26.92 79.2633 26.9934C79.3756 27.0669 79.4681 27.147 79.5408 27.2404C79.6135 27.3339 79.6465 27.4474 79.6465 27.581C79.6465 27.6945 79.6267 27.7946 79.5871 27.8881C79.5474 27.9815 79.4813 28.055 79.4086 28.1218C79.3293 28.1818 79.2368 28.2286 79.1245 28.262C79.0122 28.302 78.88 28.3154 78.7412 28.3154C78.5298 28.3154 78.3382 28.2887 78.173 28.2419C78.0078 28.1952 77.869 28.1418 77.75 28.0817C77.6311 28.0216 77.5386 27.9682 77.4593 27.9148C77.3866 27.868 77.3271 27.8413 77.2875 27.8413C77.2611 27.8413 77.2346 27.848 77.2082 27.868C77.1884 27.8814 77.1685 27.9081 77.1553 27.9482C77.1421 27.9882 77.1355 28.0416 77.1289 28.1017C77.1223 28.1618 77.1223 28.2419 77.1223 28.3354C77.1223 28.4689 77.1289 28.5758 77.1421 28.6492C77.1619 28.7226 77.1884 28.7761 77.228 28.8161C77.2677 28.8562 77.3271 28.9029 77.413 28.9496C77.4989 29.0031 77.6113 29.0498 77.7368 29.0965C77.869 29.1433 78.021 29.1833 78.1862 29.2167C78.358 29.2434 78.543 29.2634 78.7346 29.2634C79.032 29.2634 79.3029 29.2234 79.5606 29.1499C79.8183 29.0698 80.0364 28.9563 80.228 28.8028C80.4197 28.6492 80.5716 28.4556 80.684 28.2286C80.7963 27.9949 80.8558 27.7345 80.8558 27.4274C80.8558 27.1937 80.8161 26.9934 80.75 26.8198ZM87.2523 28.8896C87.2391 28.8495 87.206 28.7694 87.1399 28.6492L85.4285 26.032L86.9946 23.9623C87.0739 23.8421 87.1201 23.7553 87.1465 23.7085C87.173 23.6485 87.1862 23.6017 87.1862 23.5483C87.1862 23.5149 87.1796 23.4882 87.1598 23.4682C87.1399 23.4482 87.1135 23.4215 87.0672 23.4081C87.021 23.3881 86.9549 23.3814 86.8822 23.368C86.8029 23.3614 86.7104 23.3547 86.5915 23.3547C86.4791 23.3547 86.38 23.3547 86.3073 23.368C86.2346 23.368 86.1752 23.3814 86.1289 23.3948C86.0761 23.4081 86.043 23.4281 86.01 23.4548C85.9835 23.4815 85.9571 23.5149 85.9373 23.5483L84.2589 26.0053V23.5483C84.2589 23.5149 84.2523 23.4882 84.2324 23.4615C84.2192 23.4415 84.1862 23.4215 84.1399 23.4081C84.1003 23.3881 84.0408 23.3814 83.9681 23.368C83.8888 23.3614 83.7963 23.3547 83.684 23.3547C83.5716 23.3547 83.4791 23.3614 83.3998 23.368C83.3272 23.3814 83.2677 23.3881 83.2214 23.4081C83.1818 23.4215 83.1487 23.4415 83.1289 23.4615C83.1091 23.4882 83.0959 23.5149 83.0959 23.5483V28.9897C83.0959 29.0231 83.1091 29.0498 83.1289 29.0765C83.1487 29.1032 83.1818 29.1166 83.2214 29.1366C83.2677 29.1499 83.3272 29.1633 83.3998 29.17C83.4791 29.1833 83.5716 29.19 83.684 29.19C83.7963 29.19 83.8888 29.1833 83.9681 29.17C84.0408 29.1633 84.1003 29.1499 84.1399 29.1366C84.1862 29.1166 84.2192 29.1032 84.2324 29.0765C84.2523 29.0498 84.2589 29.0231 84.2589 28.9897V26.2456L85.9902 28.9897C86.01 29.0298 86.0364 29.0698 86.0761 29.0965C86.1091 29.1299 86.1752 29.1499 86.2545 29.1633C86.3404 29.1767 86.4791 29.19 86.6708 29.19C86.7897 29.19 86.8888 29.1833 86.9681 29.17C87.0474 29.1633 87.1135 29.1499 87.1598 29.1366C87.206 29.1166 87.2324 29.0965 87.2523 29.0698C87.2655 29.0498 87.2721 29.0164 87.2721 28.983C87.2721 28.963 87.2655 28.9296 87.2523 28.8896ZM92.3206 23.6017C92.3074 23.5483 92.2809 23.5016 92.2611 23.4682C92.2347 23.4348 92.195 23.4081 92.1355 23.3948C92.0761 23.3747 91.9968 23.368 91.891 23.3614C91.7919 23.3547 91.6532 23.3547 91.4748 23.3547C91.3294 23.3547 91.2038 23.3547 91.1179 23.3614C91.0254 23.368 90.9527 23.3747 90.8999 23.3948C90.8536 23.4081 90.8139 23.4348 90.7875 23.4682C90.7677 23.4949 90.7479 23.535 90.7281 23.5884L88.9637 28.716C88.9307 28.8161 88.9043 28.9029 88.8976 28.963C88.891 29.0231 88.8976 29.0765 88.9307 29.1099C88.9571 29.1433 89.01 29.1633 89.0893 29.17C89.162 29.1833 89.2677 29.19 89.4065 29.19C89.532 29.19 89.6311 29.1833 89.717 29.1767C89.7897 29.17 89.8492 29.1633 89.8955 29.1433C89.9351 29.1299 89.9681 29.1032 89.988 29.0765C90.0078 29.0498 90.021 29.0164 90.0342 28.9764L90.3977 27.8413H92.5452L92.9285 29.0031C92.9417 29.0431 92.9549 29.0698 92.9748 29.0965C92.988 29.1232 93.021 29.1366 93.0673 29.1566C93.1069 29.1633 93.173 29.1767 93.2589 29.1833C93.3382 29.1833 93.4571 29.19 93.6091 29.19C93.7545 29.19 93.8668 29.1833 93.9461 29.1767C94.032 29.17 94.0849 29.1499 94.1179 29.1166C94.151 29.0832 94.1642 29.0364 94.1576 28.9764C94.1444 28.9163 94.1245 28.8295 94.0915 28.7226L92.3206 23.6017ZM92.2743 26.94H90.6554L91.4615 24.483H91.4681L92.2743 26.94ZM104.314 23.5416C104.314 23.5149 104.307 23.4882 104.288 23.4615C104.274 23.4415 104.241 23.4215 104.195 23.4081C104.155 23.3881 104.096 23.3814 104.023 23.368C103.951 23.3614 103.858 23.3547 103.746 23.3547C103.633 23.3547 103.541 23.3614 103.468 23.368C103.389 23.3814 103.329 23.3881 103.29 23.4081C103.243 23.4215 103.21 23.4415 103.197 23.4615C103.177 23.4882 103.164 23.5149 103.164 23.5416V27.0201C103.164 27.2271 103.138 27.4074 103.085 27.5609C103.032 27.7212 102.953 27.8547 102.854 27.9682C102.755 28.075 102.629 28.1551 102.484 28.2152C102.345 28.2686 102.18 28.2953 101.995 28.2953C101.816 28.2953 101.658 28.2686 101.506 28.2152C101.36 28.1618 101.241 28.075 101.136 27.9682C101.03 27.8614 100.951 27.7212 100.891 27.5476C100.838 27.3807 100.805 27.1804 100.805 26.9534V23.5416C100.805 23.5149 100.799 23.4882 100.779 23.4615C100.759 23.4415 100.726 23.4215 100.686 23.4081C100.64 23.3881 100.58 23.3814 100.508 23.368C100.435 23.3614 100.343 23.3547 100.23 23.3547C100.111 23.3547 100.019 23.3614 99.9461 23.368C99.8734 23.3814 99.814 23.3881 99.7677 23.4081C99.7215 23.4215 99.6884 23.4415 99.6752 23.4615C99.6554 23.4882 99.6422 23.5149 99.6422 23.5416V27.0602C99.6422 27.4274 99.7016 27.7479 99.8008 28.0216C99.9065 28.302 100.058 28.529 100.257 28.716C100.455 28.8962 100.693 29.0364 100.977 29.1299C101.268 29.2167 101.592 29.2634 101.948 29.2634C102.332 29.2634 102.669 29.21 102.966 29.1099C103.257 29.0097 103.508 28.8629 103.706 28.6692C103.904 28.4756 104.056 28.2419 104.162 27.9615C104.261 27.6811 104.314 27.3606 104.314 27.0068V23.5416ZM111.629 23.555C111.629 23.5283 111.622 23.5016 111.609 23.4749C111.596 23.4548 111.57 23.4348 111.53 23.4148C111.497 23.3948 111.444 23.3814 111.371 23.3747C111.305 23.368 111.226 23.368 111.12 23.368C111.014 23.368 110.929 23.368 110.862 23.3747C110.796 23.3814 110.737 23.3948 110.697 23.4148C110.658 23.4348 110.625 23.4548 110.611 23.4749C110.592 23.5016 110.585 23.5283 110.585 23.555V26.2657C110.585 26.4726 110.585 26.6863 110.592 26.9133C110.592 27.1403 110.605 27.3606 110.611 27.5676H110.605C110.552 27.4474 110.499 27.3272 110.44 27.2071C110.387 27.0869 110.327 26.9667 110.268 26.8465C110.208 26.7197 110.149 26.5995 110.083 26.4726C110.023 26.3525 109.957 26.2256 109.891 26.0988L108.781 23.989C108.728 23.8688 108.669 23.7686 108.616 23.6952C108.563 23.6151 108.503 23.5483 108.444 23.5083C108.384 23.4615 108.318 23.4281 108.239 23.4148C108.166 23.3948 108.074 23.3814 107.962 23.3814H107.334C107.215 23.3814 107.122 23.4148 107.036 23.4882C106.957 23.555 106.918 23.6618 106.918 23.802V28.9964C106.918 29.0231 106.924 29.0498 106.937 29.0765C106.951 29.1032 106.977 29.1166 107.017 29.1366C107.056 29.1499 107.109 29.1633 107.175 29.17C107.248 29.1833 107.327 29.19 107.433 29.19C107.539 29.19 107.625 29.1833 107.691 29.17C107.763 29.1633 107.816 29.1499 107.856 29.1366C107.895 29.1166 107.922 29.1032 107.942 29.0765C107.955 29.0498 107.962 29.0231 107.962 28.9964V25.9719C107.962 25.7449 107.962 25.5246 107.955 25.3109C107.948 25.104 107.942 24.8903 107.929 24.67H107.935C108.001 24.8502 108.081 25.0305 108.166 25.2175C108.252 25.4044 108.338 25.578 108.418 25.7382L109.838 28.4356C109.918 28.5824 109.984 28.7093 110.043 28.8028C110.096 28.8962 110.162 28.9697 110.221 29.0231C110.288 29.0765 110.36 29.1166 110.433 29.1366C110.506 29.1566 110.598 29.17 110.697 29.17H111.193C111.252 29.17 111.305 29.1633 111.358 29.1433C111.411 29.1299 111.457 29.1032 111.497 29.0698C111.536 29.0298 111.57 28.983 111.596 28.9296C111.616 28.8829 111.629 28.8161 111.629 28.7494V23.555ZM115.402 23.5416C115.402 23.5149 115.389 23.4882 115.369 23.4615C115.356 23.4415 115.323 23.4215 115.277 23.4081C115.23 23.3881 115.171 23.3814 115.098 23.368C115.025 23.3614 114.933 23.3547 114.821 23.3547C114.702 23.3547 114.609 23.3614 114.536 23.368C114.464 23.3814 114.404 23.3881 114.358 23.4081C114.312 23.4215 114.285 23.4415 114.266 23.4615C114.246 23.4882 114.233 23.5149 114.233 23.5416V28.9964C114.233 29.0298 114.246 29.0565 114.266 29.0765C114.285 29.1032 114.312 29.1232 114.358 29.1366C114.404 29.1499 114.464 29.1633 114.536 29.17C114.609 29.1833 114.702 29.19 114.821 29.19C114.933 29.19 115.025 29.1833 115.098 29.17C115.171 29.1633 115.23 29.1499 115.277 29.1366C115.323 29.1232 115.356 29.1032 115.369 29.0765C115.389 29.0565 115.402 29.0298 115.402 28.9964V23.5416ZM119.763 23.535C119.763 23.5016 119.757 23.4815 119.737 23.4548C119.717 23.4348 119.684 23.4148 119.638 23.4014C119.592 23.3881 119.532 23.3747 119.459 23.368C119.387 23.3614 119.294 23.3547 119.182 23.3547C119.07 23.3547 118.97 23.3614 118.898 23.368C118.818 23.3747 118.759 23.3881 118.719 23.4014C118.673 23.4148 118.647 23.4348 118.627 23.4548C118.607 23.4815 118.594 23.5016 118.594 23.535V27.5008C118.594 27.6477 118.587 27.7679 118.567 27.8614C118.548 27.9548 118.514 28.0283 118.475 28.0817C118.435 28.1351 118.382 28.1752 118.323 28.1952C118.263 28.2219 118.197 28.2286 118.118 28.2286C118.032 28.2286 117.966 28.2219 117.907 28.2019C117.847 28.1818 117.794 28.1618 117.755 28.1418C117.708 28.1218 117.669 28.1017 117.636 28.0817C117.596 28.0617 117.57 28.055 117.543 28.055C117.51 28.055 117.49 28.0617 117.47 28.075C117.451 28.095 117.437 28.1218 117.424 28.1618C117.411 28.2019 117.404 28.2553 117.404 28.3287C117.398 28.3955 117.398 28.4823 117.398 28.5824C117.398 28.6626 117.398 28.7226 117.398 28.7761C117.404 28.8295 117.404 28.8695 117.418 28.9029C117.424 28.9363 117.437 28.963 117.451 28.983C117.457 29.0097 117.477 29.0298 117.49 29.0431C117.51 29.0631 117.543 29.0899 117.596 29.1099C117.649 29.1366 117.715 29.1566 117.788 29.1767C117.86 29.1967 117.94 29.2167 118.025 29.2301C118.111 29.2434 118.197 29.2501 118.29 29.2501C118.561 29.2501 118.799 29.21 118.984 29.1366C119.175 29.0565 119.327 28.943 119.446 28.7961C119.559 28.6492 119.638 28.4689 119.691 28.262C119.737 28.0483 119.763 27.8146 119.763 27.5542V23.535ZM125.076 23.6017C125.056 23.5483 125.037 23.5016 125.01 23.4682C124.984 23.4348 124.944 23.4081 124.885 23.3948C124.832 23.3747 124.752 23.368 124.647 23.3614C124.541 23.3547 124.402 23.3547 124.23 23.3547C124.078 23.3547 123.959 23.3547 123.867 23.3614C123.781 23.368 123.708 23.3747 123.655 23.3948C123.603 23.4081 123.563 23.4348 123.543 23.4682C123.517 23.4949 123.497 23.535 123.484 23.5884L121.719 28.716C121.68 28.8161 121.66 28.9029 121.653 28.963C121.64 29.0231 121.653 29.0765 121.68 29.1099C121.713 29.1433 121.766 29.1633 121.838 29.17C121.918 29.1833 122.023 29.19 122.162 29.19C122.288 29.19 122.387 29.1833 122.466 29.1767C122.545 29.17 122.605 29.1633 122.644 29.1433C122.691 29.1299 122.724 29.1032 122.737 29.0765C122.757 29.0498 122.777 29.0164 122.79 28.9764L123.147 27.8413H125.294L125.684 29.0031C125.691 29.0431 125.711 29.0698 125.724 29.0965C125.744 29.1232 125.777 29.1366 125.816 29.1566C125.863 29.1633 125.929 29.1767 126.008 29.1833C126.094 29.1833 126.213 29.19 126.365 29.19C126.503 29.19 126.622 29.1833 126.702 29.1767C126.781 29.17 126.84 29.1499 126.874 29.1166C126.907 29.0832 126.92 29.0364 126.907 28.9764C126.9 28.9163 126.88 28.8295 126.84 28.7226L125.076 23.6017ZM125.03 26.94H123.404L124.217 24.483L125.03 26.94Z" fill="white"/>
<path d="M38.415 18.5104V44.1288H0.236914V18.5104H38.415Z" stroke="white" stroke-width="0.3"/>
<path d="M18.5098 24.0085L19.3226 23.4076L20.1288 24.0085L19.8248 23.0404L20.6442 22.4395H19.6265L19.3226 21.458L19.0054 22.4395H17.9944L18.8138 23.0404L18.5098 24.0085Z" fill="white"/>
<path d="M14.3072 25.151L15.1134 24.5501L15.9261 25.151L15.6156 24.1829L16.4416 23.582H15.4305L15.1134 22.6006L14.8028 23.582H13.7852L14.6111 24.1829L14.3072 25.151Z" fill="white"/>
<path d="M12.0406 25.7109L11.73 26.6924H10.7124L11.5384 27.2933L11.2278 28.2614L12.0406 27.6605L12.8534 28.2614L12.5428 27.2933L13.3688 26.6924H12.3512L12.0406 25.7109Z" fill="white"/>
<path d="M10.9173 31.9007L11.7235 32.5016L11.4195 31.5335L12.2389 30.9326H11.2279L10.9173 29.9512L10.6068 30.9393L9.58252 30.9326L10.4151 31.5335L10.1045 32.5016L10.9173 31.9007Z" fill="white"/>
<path d="M12.3512 35.1857L12.0406 34.2109L11.73 35.1857H10.7124L11.5384 35.7866L11.2278 36.7547L12.0406 36.1538L12.8534 36.7547L12.5428 35.7866L13.3688 35.1857H12.3512Z" fill="white"/>
<path d="M15.4305 38.297L15.1199 37.3223L14.816 38.3037L13.7983 38.297L14.6243 38.8979L14.3138 39.866L15.1199 39.2718L15.9327 39.866L15.6287 38.8979L16.4481 38.297H15.4305Z" fill="white"/>
<path d="M19.6332 39.4317L19.3226 38.4502L19.012 39.4317H17.9944L18.8204 40.0259L18.5098 40.994L19.3226 40.3997L20.1288 40.994L19.8248 40.0259L20.6508 39.4317H19.6332Z" fill="white"/>
<path d="M23.8292 38.297L23.5186 37.3223L23.2014 38.3037L22.1904 38.297L23.0164 38.8979L22.7058 39.866L23.5186 39.2718L24.3314 39.866L24.0208 38.8979L24.8468 38.297H23.8292Z" fill="white"/>
<path d="M26.9085 35.1857L26.598 34.2109L26.2874 35.1857H25.2698L26.0958 35.7866L25.7852 36.7547L26.598 36.1538L27.4107 36.7547L27.1002 35.7866L27.9262 35.1857H26.9085Z" fill="white"/>
<path d="M29.0363 30.9258H28.0252L27.7081 29.9443L27.3975 30.9258H26.3865L27.2059 31.52L26.9019 32.4881L27.7081 31.8939L28.5208 32.4881L28.2169 31.52L29.0363 30.9258Z" fill="white"/>
<path d="M25.7852 28.2487L26.598 27.6478L27.4107 28.2487L27.1002 27.2806L27.9262 26.6797H26.9085L26.598 25.6982L26.2874 26.6864L25.2698 26.6797L26.0958 27.2806L25.7852 28.2487Z" fill="white"/>
<path d="M23.5252 22.6006L23.2146 23.582H22.2036L23.023 24.1829L22.7124 25.151L23.5252 24.5501L24.338 25.151L24.034 24.1829L24.86 23.582H23.8424L23.5252 22.6006Z" fill="white"/>
<path d="M32.4065 11.3168C34.1378 13.0593 36.3118 14.0742 38.5651 14.3546V8.92656C37.6796 8.69956 36.8404 8.23887 36.1466 7.53783C34.0849 5.45475 34.0849 2.08976 36.1334 0H25.3426L19.7655 2.98442L18.1994 0H12.2126L15.0937 5.48813L10.4218 7.99184L6.2258 0H0.245605L5.75003 10.4956L8.22801 15.2159L27.1003 5.10757L20.7104 17.2789H35.6708L36.2061 16.2708L29.195 12.5185L30.8668 9.33383C31.2964 10.0349 31.8052 10.7025 32.4065 11.3168Z" fill="#B6BEC4"/>
<path d="M38.565 53.9998V48.1512L33.0011 45.3604H15.8469C15.9262 45.8945 15.9262 46.4553 15.8337 47.0228C15.3579 49.9338 12.642 51.9034 9.76095 51.4227C6.90632 50.9486 4.96358 48.2379 5.3931 45.3604H0.0869141V47.1163C0.3248 49.7869 1.55388 52.2238 3.44375 53.9998H17.7962C19.468 52.4442 20.6508 50.3344 21.0539 47.8908C21.1927 47.0428 21.2191 46.2016 21.1597 45.3737L24.3579 46.9761L20.9019 53.9998H26.8028L29.0892 49.3596L33.8205 51.7365L32.7104 53.9998H38.565Z" fill="#B6BEC4"/>
</g>
<defs>
<clipPath id="clip0_5704_4222">
<rect width="127" height="54" fill="white"/>
</clipPath>
</defs>
</svg>
