<svg width="22" height="22" viewBox="0 0 22 22" fill="none" xmlns="http://www.w3.org/2000/svg">
<path d="M18.3333 8.25H10.0833C9.07081 8.25 8.25 9.07081 8.25 10.0833V18.3333C8.25 19.3459 9.07081 20.1667 10.0833 20.1667H18.3333C19.3459 20.1667 20.1667 19.3459 20.1667 18.3333V10.0833C20.1667 9.07081 19.3459 8.25 18.3333 8.25Z" stroke="#006CB7" stroke-width="2" stroke-linecap="round" stroke-linejoin="round"/>
<path d="M4.58334 13.75H3.66668C3.18045 13.75 2.71413 13.5569 2.37031 13.2131C2.0265 12.8693 1.83334 12.4029 1.83334 11.9167V3.66671C1.83334 3.18048 2.0265 2.71416 2.37031 2.37034C2.71413 2.02653 3.18045 1.83337 3.66668 1.83337H11.9167C12.4029 1.83337 12.8692 2.02653 13.213 2.37034C13.5569 2.71416 13.75 3.18048 13.75 3.66671V4.58337" stroke="#006CB7" stroke-width="2" stroke-linecap="round" stroke-linejoin="round"/>
</svg>
