<svg width="18" height="18" viewBox="0 0 18 18" fill="none" xmlns="http://www.w3.org/2000/svg">
<path d="M15 11.25H8.25C7.42157 11.25 6.75 10.5784 6.75 9.75V3C6.75 2.17157 7.42157 1.5 8.25 1.5H15C15.8284 1.5 16.5 2.17157 16.5 3V9.75C16.5 10.5784 15.8284 11.25 15 11.25Z" fill="#006CB7" stroke="#006CB7" stroke-width="2" stroke-linecap="round" stroke-linejoin="round"/>
<path d="M3.75 6.75H3C2.60218 6.75 2.22064 6.90804 1.93934 7.18934C1.65804 7.47064 1.5 7.85218 1.5 8.25V15C1.5 15.3978 1.65804 15.7794 1.93934 16.0607C2.22064 16.342 2.60218 16.5 3 16.5H9.75C10.1478 16.5 10.5294 16.342 10.8107 16.0607C11.092 15.7794 11.25 15.3978 11.25 15V14.25" stroke="#006CB7" stroke-width="2" stroke-linecap="round" stroke-linejoin="round"/>
</svg>
