<svg width="16" height="16" viewBox="0 0 16 16" fill="none" xmlns="http://www.w3.org/2000/svg">
<path d="M10.4003 7.19341C11.047 6.74675 11.5003 6.01341 11.5003 5.33341C11.5003 3.82675 10.3337 2.66675 8.83366 2.66675H5.33366C4.96699 2.66675 4.66699 2.96675 4.66699 3.33341V11.3334C4.66699 11.7001 4.96699 12.0001 5.33366 12.0001H9.18699C10.567 12.0001 11.827 10.8734 11.8337 9.48675C11.8403 8.46675 11.267 7.59341 10.4003 7.19341ZM6.66699 4.33341H8.66699C9.22033 4.33341 9.66699 4.78008 9.66699 5.33341C9.66699 5.88675 9.22033 6.33341 8.66699 6.33341H6.66699V4.33341ZM9.00033 10.3334H6.66699V8.33341H9.00033C9.55366 8.33341 10.0003 8.78008 10.0003 9.33341C10.0003 9.88675 9.55366 10.3334 9.00033 10.3334Z" fill="#323232"/>
</svg>
