<svg width="16" height="16" viewBox="0 0 16 16" fill="none" xmlns="http://www.w3.org/2000/svg">
<path d="M6.66667 3.66675C6.66667 4.22008 7.11333 4.66675 7.66667 4.66675H8.14L5.86 10.0001H5C4.44667 10.0001 4 10.4467 4 11.0001C4 11.5534 4.44667 12.0001 5 12.0001H8.33333C8.88667 12.0001 9.33333 11.5534 9.33333 11.0001C9.33333 10.4467 8.88667 10.0001 8.33333 10.0001H7.86L10.14 4.66675H11C11.5533 4.66675 12 4.22008 12 3.66675C12 3.11341 11.5533 2.66675 11 2.66675H7.66667C7.11333 2.66675 6.66667 3.11341 6.66667 3.66675Z" fill="#323232"/>
</svg>
