<svg width="32" height="32" viewBox="0 0 32 32" fill="none" xmlns="http://www.w3.org/2000/svg">
<path d="M16 4.0625C17.7181 4.0625 19.2737 4.75875 20.4 5.885C21.5262 7.01125 22.2225 8.56687 22.2225 10.285C22.2225 12.0031 21.5262 13.5588 20.4 14.685C19.9337 15.1506 19.3944 15.5431 18.8 15.8431C20.9181 16.3612 22.8112 17.4544 24.3044 18.9475C26.43 21.0725 27.7444 24.0087 27.7444 27.2519C27.7444 27.6488 27.4225 27.9706 27.0256 27.9706C26.6287 27.9706 26.3069 27.6488 26.3069 27.2519C26.3069 24.4056 25.1531 21.8287 23.2881 19.9637C21.4231 18.0988 18.8462 16.945 16 16.945C13.1537 16.945 10.5769 18.0988 8.71186 19.9637C6.84687 21.8287 5.69312 24.4056 5.69312 27.2519C5.69312 27.6488 5.37124 27.9706 4.97437 27.9706C4.57749 27.9706 4.25562 27.6488 4.25562 27.2519C4.25562 24.0087 5.56999 21.0725 7.69562 18.9475C9.18874 17.4544 11.0819 16.3612 13.2 15.8431C12.6056 15.5431 12.0662 15.1506 11.6 14.685C10.4737 13.5588 9.77749 12.0031 9.77749 10.285C9.77749 8.56687 10.4737 7.01125 11.6 5.885C12.7262 4.75875 14.2819 4.0625 16 4.0625ZM19.3837 6.90125C18.5181 6.03562 17.3212 5.5 16 5.5C14.6787 5.5 13.4819 6.03562 12.6162 6.90125C11.7506 7.76688 11.215 8.96375 11.215 10.285C11.215 11.6062 11.7506 12.8025 12.6162 13.6687C13.4819 14.5344 14.6787 15.07 16 15.07C17.3212 15.07 18.5181 14.5344 19.3837 13.6687C20.2494 12.8025 20.785 11.6062 20.785 10.285C20.785 8.96375 20.2494 7.76688 19.3837 6.90125Z" fill="#F5F5F5"/>
</svg>
