<?xml version="1.0" encoding="UTF-8" standalone="no"?>
<!-- Created with Inkscape (http://www.inkscape.org/) -->

<svg
   xmlns:dc="http://purl.org/dc/elements/1.1/"
   xmlns:cc="http://creativecommons.org/ns#"
   xmlns:rdf="http://www.w3.org/1999/02/22-rdf-syntax-ns#"
   xmlns:svg="http://www.w3.org/2000/svg"
   xmlns="http://www.w3.org/2000/svg"
   xmlns:sodipodi="http://sodipodi.sourceforge.net/DTD/sodipodi-0.dtd"
   xmlns:inkscape="http://www.inkscape.org/namespaces/inkscape"
   width="9.4136763mm"
   height="9.7565308mm"
   viewBox="0 0 9.4136763 9.7565308"
   version="1.1"
   id="svg8"
   inkscape:version="0.92.3 (2405546, 2018-03-11)"
   sodipodi:docname="drawing.svg">
  <defs
     id="defs2">
    <clipPath
       id="clip0">
      <rect
         id="rect821"
         transform="rotate(45,4.7985105,12.389004)"
         height="13.3476"
         width="13.3476"
         x="0"
         y="0"
         style="fill:#ffffff" />
    </clipPath>
  </defs>
  <sodipodi:namedview
     id="base"
     pagecolor="#ffffff"
     bordercolor="#666666"
     borderopacity="1.0"
     inkscape:pageopacity="0.0"
     inkscape:pageshadow="2"
     inkscape:zoom="4.8726562"
     inkscape:cx="27.247258"
     inkscape:cy="25.374082"
     inkscape:document-units="mm"
     inkscape:current-layer="layer1"
     showgrid="false"
     inkscape:window-width="1126"
     inkscape:window-height="1011"
     inkscape:window-x="675"
     inkscape:window-y="99"
     inkscape:window-maximized="0" />
  <metadata
     id="metadata5">
    <rdf:RDF>
      <cc:Work
         rdf:about="">
        <dc:format>image/svg+xml</dc:format>
        <dc:type
           rdf:resource="http://purl.org/dc/dcmitype/StillImage" />
        <dc:title></dc:title>
      </cc:Work>
    </rdf:RDF>
  </metadata>
  <g
     inkscape:label="Layer 1"
     inkscape:groupmode="layer"
     id="layer1"
     transform="translate(115.87733,-128.02548)">
    <g
       id="g858">
      <g
         transform="matrix(0.26458333,0,0,0.26458333,-110.54908,126.86169)"
         id="g837"
         style="fill:none">
        <g
           clip-path="url(#clip0)"
           id="g819">
          <path
             style="clip-rule:evenodd;fill:#848c91;fill-rule:evenodd"
             inkscape:connector-curvature="0"
             d="m 15.441,9.67381 c 0,0.30716 -0.249,0.55619 -0.5561,0.55619 H 5.44668 c -0.30715,0 -0.55615,-0.24903 -0.55615,-0.55619 0,-0.30715 0.249,-0.55615 0.55615,-0.55614 h 9.43822 c 0.3071,-10e-6 0.5561,0.24899 0.5561,0.55614 z"
             id="path815" />
          <path
             style="clip-rule:evenodd;fill:#848c91;fill-rule:evenodd"
             inkscape:connector-curvature="0"
             d="m 10.1658,4.39858 c 0.3071,0 0.5561,0.24899 0.5561,0.55615 v 9.43817 c 0,0.3072 -0.249,0.5562 -0.5561,0.5562 -0.30718,0 -0.55618,-0.249 -0.55618,-0.5562 V 4.95473 c 0,-0.30716 0.249,-0.55615 0.55618,-0.55615 z"
             id="path817" />
        </g>
      </g>
      <g
         transform="matrix(0.26458333,0,0,0.26458333,-117.47684,128.20473)"
         id="g850"
         style="fill:none">
        <path
           style="fill:#848c91"
           inkscape:connector-curvature="0"
           d="m 21.1498,5.44946 c 2.2097,0 4.2104,0.89545 5.6588,2.34391 1.4485,1.44847 2.3439,3.44913 2.3439,5.65883 0,2.2097 -0.8954,4.2104 -2.3439,5.6588 -0.5996,0.5989 -1.2933,1.1037 -2.0577,1.4895 2.7241,0.6663 5.1588,2.0722 7.0791,3.9925 2.7338,2.733 4.4242,6.5093 4.4242,10.6802 0,0.5104 -0.414,0.9244 -0.9244,0.9244 -0.5104,0 -0.9244,-0.414 -0.9244,-0.9244 0,-3.6605 -1.4838,-6.9746 -3.8824,-9.3732 -2.3985,-2.3986 -5.7126,-3.8824 -9.3732,-3.8824 -3.6605,0 -6.9747,1.4838 -9.3732,3.8824 -2.39859,2.3986 -3.88243,5.7127 -3.88243,9.3732 0,0.5104 -0.41396,0.9244 -0.92438,0.9244 -0.51042,0 -0.92438,-0.414 -0.92438,-0.9244 0,-4.1709 1.69041,-7.9472 4.42419,-10.6802 1.9203,-1.9203 4.355,-3.3262 7.0791,-3.9925 -0.7644,-0.3858 -1.4581,-0.8906 -2.0577,-1.4895 -1.4485,-1.4484 -2.3439,-3.4491 -2.3439,-5.6588 0,-2.2097 0.8954,-4.21036 2.3439,-5.65883 1.4484,-1.44846 3.4491,-2.34391 5.6588,-2.34391 z m 4.3518,3.65091 C 24.3884,7.98709 22.8491,7.29823 21.1498,7.29823 c -1.6992,0 -3.2385,0.68886 -4.3518,1.80214 -1.1133,1.11323 -1.8022,2.65253 -1.8022,4.35183 0,1.6993 0.6889,3.2377 1.8022,4.3518 1.1133,1.1133 2.6526,1.8022 4.3518,1.8022 1.6993,0 3.2386,-0.6889 4.3518,-1.8022 1.1133,-1.1141 1.8022,-2.6525 1.8022,-4.3518 0,-1.6993 -0.6889,-3.2386 -1.8022,-4.35183 z"
           id="path839" />
      </g>
    </g>
  </g>
</svg>
