<svg width="22" height="22" viewBox="0 0 22 22" fill="none" xmlns="http://www.w3.org/2000/svg">
<path fill-rule="evenodd" clip-rule="evenodd" d="M11.7753 1.75068C12.9069 0.657729 14.4225 0.0529626 15.9957 0.0666331C17.5689 0.0803036 19.0738 0.711317 20.1862 1.82377C21.2987 2.93621 21.9297 4.44109 21.9433 6.01427C21.957 7.58745 21.3523 9.10306 20.2593 10.2347L20.2471 10.2471L17.2473 13.2469C16.639 13.8554 15.907 14.326 15.1009 14.6267C14.2948 14.9274 13.4334 15.0512 12.5752 14.9897C11.7171 14.9283 10.8821 14.683 10.1271 14.2705C9.37208 13.858 8.71459 13.2879 8.19925 12.5989C7.86844 12.1567 7.95879 11.53 8.40104 11.1992C8.84329 10.8684 9.46997 10.9587 9.80078 11.401C10.1443 11.8603 10.5827 12.2403 11.086 12.5153C11.5894 12.7903 12.146 12.9539 12.7181 12.9949C13.2902 13.0358 13.8645 12.9533 14.4019 12.7528C14.9393 12.5523 15.4273 12.2386 15.8328 11.833L18.8264 8.83934C19.5515 8.08557 19.9525 7.0777 19.9434 6.03165C19.9343 4.98286 19.5136 3.97961 18.772 3.23798C18.0304 2.49635 17.0271 2.07567 15.9783 2.06656C14.9318 2.05746 13.9235 2.45887 13.1697 3.1845L11.4551 4.88913C11.0634 5.27851 10.4302 5.27667 10.0409 4.88501C9.65147 4.49335 9.65331 3.86018 10.045 3.4708L11.765 1.7608L11.7753 1.75068Z" fill="#46535B"/>
<path fill-rule="evenodd" clip-rule="evenodd" d="M6.89917 7.37325C7.70528 7.07255 8.56663 6.94873 9.4248 7.01019C10.283 7.07165 11.1179 7.31695 11.8729 7.72946C12.628 8.14197 13.2854 8.71203 13.8008 9.40099C14.1316 9.84324 14.0412 10.4699 13.599 10.8007C13.1567 11.1315 12.5301 11.0412 12.1993 10.5989C11.8557 10.1396 11.4174 9.7596 10.914 9.48459C10.4107 9.20959 9.85405 9.04605 9.28193 9.00508C8.70982 8.9641 8.13558 9.04665 7.59818 9.24712C7.06077 9.44759 6.57276 9.76129 6.16725 10.1669L3.17361 13.1606C2.44857 13.9144 2.04752 14.9222 2.05661 15.9683C2.06572 17.0171 2.4864 18.0203 3.22803 18.762C3.96966 19.5036 4.97291 19.9243 6.0217 19.9334C7.06775 19.9425 8.07561 19.5414 8.82938 18.8164L10.5329 17.1129C10.9234 16.7223 11.5566 16.7223 11.9471 17.1129C12.3376 17.5034 12.3376 18.1365 11.9471 18.5271L10.2371 20.2371L10.2247 20.2493C9.09311 21.3422 7.5775 21.947 6.00432 21.9333C4.43114 21.9196 2.92627 21.2886 1.81382 20.1762C0.701368 19.0637 0.0703548 17.5588 0.0566843 15.9857C0.0430138 14.4125 0.64778 12.8969 1.74073 11.7653L1.75291 11.7529L4.75278 8.75299C4.75274 8.75303 4.75282 8.75294 4.75278 8.75299C5.36102 8.14457 6.09311 7.67393 6.89917 7.37325Z" fill="#46535B"/>
</svg>
