<svg width="14" height="8" viewBox="0 0 14 8" fill="none" xmlns="http://www.w3.org/2000/svg">
<path d="M1.63981 3.58675C1.82647 2.60675 2.74647 1.93341 3.74647 1.93341H5.69981C6.04647 1.93341 6.33314 1.64675 6.33314 1.30008C6.33314 0.953415 6.04647 0.666748 5.69981 0.666748H3.81314C2.07314 0.666748 0.519806 1.94008 0.353139 3.67341C0.159806 5.66008 1.71981 7.33341 3.66647 7.33341H5.69981C6.04647 7.33341 6.33314 7.04675 6.33314 6.70008C6.33314 6.35341 6.04647 6.06675 5.69981 6.06675H3.66647C2.39314 6.06675 1.38647 4.90675 1.63981 3.58675ZM4.99981 4.66675H8.99981C9.36647 4.66675 9.66647 4.36675 9.66647 4.00008C9.66647 3.63341 9.36647 3.33341 8.99981 3.33341H4.99981C4.63314 3.33341 4.33314 3.63341 4.33314 4.00008C4.33314 4.36675 4.63314 4.66675 4.99981 4.66675ZM10.1865 0.666748H8.29981C7.95314 0.666748 7.66647 0.953415 7.66647 1.30008C7.66647 1.64675 7.95314 1.93341 8.29981 1.93341H10.2531C11.2531 1.93341 12.1731 2.60675 12.3598 3.58675C12.6131 4.90675 11.6065 6.06675 10.3331 6.06675H8.29981C7.95314 6.06675 7.66647 6.35341 7.66647 6.70008C7.66647 7.04675 7.95314 7.33341 8.29981 7.33341H10.3331C12.2798 7.33341 13.8398 5.66008 13.6531 3.67341C13.4865 1.94008 11.9265 0.666748 10.1865 0.666748Z" fill="#323232"/>
</svg>
