<svg width="24" height="24" viewBox="0 0 24 24" fill="none" xmlns="http://www.w3.org/2000/svg">
<path d="M12 0.0625C13.7181 0.0625 15.2737 0.75875 16.4 1.885C17.5262 3.01125 18.2225 4.56687 18.2225 6.285C18.2225 8.00312 17.5262 9.55875 16.4 10.685C15.9337 11.1506 15.3944 11.5431 14.8 11.8431C16.9181 12.3612 18.8112 13.4544 20.3044 14.9475C22.43 17.0725 23.7444 20.0087 23.7444 23.2519C23.7444 23.6488 23.4225 23.9706 23.0256 23.9706C22.6287 23.9706 22.3069 23.6488 22.3069 23.2519C22.3069 20.4056 21.1531 17.8287 19.2881 15.9637C17.4231 14.0988 14.8462 12.945 12 12.945C9.15374 12.945 6.57687 14.0988 4.71186 15.9637C2.84687 17.8287 1.69312 20.4056 1.69312 23.2519C1.69312 23.6488 1.37124 23.9706 0.974365 23.9706C0.57749 23.9706 0.255615 23.6488 0.255615 23.2519C0.255615 20.0087 1.56999 17.0725 3.69562 14.9475C5.18874 13.4544 7.08187 12.3612 9.19999 11.8431C8.60561 11.5431 8.06624 11.1506 7.59999 10.685C6.47374 9.55875 5.77749 8.00312 5.77749 6.285C5.77749 4.56687 6.47374 3.01125 7.59999 1.885C8.72624 0.75875 10.2819 0.0625 12 0.0625ZM15.3837 2.90125C14.5181 2.03562 13.3212 1.5 12 1.5C10.6787 1.5 9.48186 2.03562 8.61624 2.90125C7.75062 3.76688 7.21499 4.96375 7.21499 6.285C7.21499 7.60625 7.75062 8.8025 8.61624 9.66875C9.48186 10.5344 10.6787 11.07 12 11.07C13.3212 11.07 14.5181 10.5344 15.3837 9.66875C16.2494 8.8025 16.785 7.60625 16.785 6.285C16.785 4.96375 16.2494 3.76688 15.3837 2.90125Z" fill="#F5F5F5"/>
</svg>
