<svg width="18" height="15" viewBox="0 0 18 15" fill="none" xmlns="http://www.w3.org/2000/svg">
<path d="M7.14384 8.30137V7.80137H6.64384H4.60384C4.87874 6.54623 5.59326 5.274 6.79105 3.98406L7.15968 3.58708L6.73448 3.2514L4.65229 1.60756L4.30331 1.33205L3.98891 1.64645C2.74508 2.89028 1.8433 4.2065 1.30199 5.59735C0.765001 6.94073 0.5 8.41027 0.5 10V14V14.5H1H6.64384H7.14384V14V8.30137ZM16.3493 8.30137V7.80137H15.8493H13.8093C14.0842 6.54623 14.7987 5.274 15.9965 3.98406L16.3652 3.58708L15.94 3.2514L13.8578 1.60756L13.5088 1.33205L13.1944 1.64645C11.9505 2.8903 11.0488 4.20653 10.5075 5.5974C9.97047 6.94076 9.70548 8.41029 9.70548 10V14V14.5H10.2055H15.8493H16.3493V14V8.30137Z" stroke="#848C91"/>
</svg>
