<svg width="199" height="30" viewBox="0 0 199 30" fill="none" xmlns="http://www.w3.org/2000/svg">
<g clip-path="url(#clip0_5704_4207)">
<path d="M49.3944 8.16417H51.4024L53.4228 12.0474H54.5192L52.4126 8.0635C53.7123 7.82862 54.3313 7.06296 54.3313 5.56521C54.3313 3.71665 53.3981 3.10352 51.3254 3.10352H48.4365V12.0474H49.3944V8.16417V8.16417ZM49.3944 3.91493H51.2515C52.6651 3.91493 53.3581 4.20472 53.3581 5.62927C53.3581 7.10262 52.6251 7.36191 51.2515 7.36191H49.3944V3.91493ZM61.7198 12.0474V11.239H57.2664V7.93844H61.1285V7.13922H57.2664V3.91493H61.7198V3.10352H56.3086V12.0474H61.7198ZM64.5964 8.36244H66.4628C68.5324 8.36244 69.4656 7.61509 69.4656 5.66282C69.4656 3.74105 68.5324 3.10352 66.4628 3.10352H63.6386V12.0474H64.5964V8.36244V8.36244ZM64.5964 3.92713H66.3858C67.7994 3.92713 68.4924 4.22912 68.4924 5.72688C68.4924 7.27344 67.7624 7.55103 66.3858 7.55103H64.5964V3.92713V3.92713ZM77.0235 3.10352H76.0626V8.97558C76.0626 10.6747 75.3327 11.3732 73.8821 11.3732C72.4284 11.3732 71.7108 10.6838 71.7108 8.97558V3.10352H70.753V9.07319C70.753 11.2634 71.874 12.1968 73.8205 12.1968C75.8378 12.1968 77.0235 11.2481 77.0235 8.93897V3.10352V3.10352ZM85.2097 9.61312C85.2097 8.4265 84.8062 7.80117 83.9346 7.47782V7.42596C84.6953 7.11482 85.0434 6.46508 85.0434 5.42489C85.0434 3.89052 84.2149 3.10352 82.1853 3.10352H79.3056V12.0474H82.1853C84.3165 12.0474 85.2097 11.297 85.2097 9.61312V9.61312ZM84.2395 9.54906C84.2395 10.7143 83.6328 11.239 82.3978 11.239H80.2635V7.88658H82.3978C83.6328 7.88658 84.2395 8.4021 84.2395 9.54906V9.54906ZM84.0763 5.51335C84.0763 6.71522 83.3926 7.10262 82.2838 7.10262H80.2635V3.91493H82.2838C83.408 3.91493 84.0763 4.27793 84.0763 5.51335V5.51335ZM92.3241 12.0474V11.239H88.1078V3.10352H87.15V12.0474H92.3241ZM94.8464 12.0474V3.10352H93.8855V12.0474H94.8464ZM97.3442 12.0474H98.302V7.86218H99.0874L102.115 12.0474H103.273L99.9312 7.42596L103.199 3.10352H102.09L99.149 7.05076H98.302V3.10352H97.3442V12.0474V12.0474Z" fill="white"/>
<path d="M110.159 12.0474H111.169L108.191 3.10357H106.904L103.938 12.0474H104.927L105.62 9.86331H109.451L110.159 12.0474V12.0474ZM107.511 3.95159H107.56L109.198 9.07325H105.869L107.511 3.95159ZM120.566 9.68638C120.566 8.17337 120.021 7.68836 117.902 7.03862C116.729 6.69087 116.159 6.40108 116.159 5.30293C116.159 4.21393 116.664 3.78992 118.016 3.78992C118.786 3.78992 119.417 3.92719 120.098 4.16512L120.261 3.36591C119.577 3.10357 118.761 2.9541 117.976 2.9541C116.076 2.9541 115.176 3.78077 115.176 5.36699C115.176 6.87389 115.986 7.46263 117.677 7.92629C119.202 8.3503 119.593 8.7377 119.593 9.77485C119.593 11.0499 118.998 11.3733 117.702 11.3733C116.867 11.3733 116.011 11.2238 115.315 10.9767L115.115 11.7881C115.86 12.0627 116.63 12.1969 117.588 12.1969C119.756 12.1969 120.566 11.5014 120.566 9.68638V9.68638ZM127.517 12.0474V11.239H123.301V3.10357H122.343V12.0474H127.517Z" fill="white"/>
<path d="M131.638 12.1969C134.013 12.1969 135.097 11.0621 135.097 7.56634C135.097 4.11631 133.976 2.9541 131.638 2.9541C129.282 2.9541 128.161 4.12546 128.161 7.5999C128.161 11.0621 129.282 12.1969 131.638 12.1969ZM131.629 11.3611C129.747 11.3611 129.168 10.3148 129.168 7.55109C129.168 4.75385 129.747 3.78992 131.629 3.78992C133.504 3.78992 134.09 4.763 134.09 7.55109C134.09 10.3148 133.504 11.3611 131.629 11.3611ZM138.703 12.0474H140.055L142.765 3.10357H141.832L139.436 11.1231H139.387L136.963 3.10357H135.981L138.703 12.0474ZM149.556 12.0474V11.239H145.1V7.93849H148.962V7.13928H145.1V3.91498H149.556V3.10357H144.142V12.0474H149.556ZM156.468 12.0474H157.869V3.10357H156.988V11.0255H156.936L152.886 3.10357H151.472V12.0474H152.356V4.11631H152.405L156.468 12.0474V12.0474ZM161.324 12.0474V3.10357H160.367V12.0474H161.324ZM164.087 3.10357V11.4099C164.087 12.6361 163.711 13.2493 162.563 13.5848L162.815 14.3871C164.531 13.896 165.045 13.0235 165.045 11.3367V3.10357H164.087V3.10357Z" fill="white"/>
<path d="M172.424 12.0474H173.431L170.453 3.10352H169.166L166.203 12.0474H167.188L167.881 9.86325H171.716L172.424 12.0474V12.0474ZM169.772 3.95153H169.825L171.46 9.07319H168.131L169.772 3.95153Z" fill="white"/>
<path d="M48.1223 18.0958V27.0396H49.6592V20.4324H49.7238L51.2761 23.9068H52.7636L54.3035 20.4171H54.3651V27.0396H55.9574V18.0958H53.9247L52.1107 22.1559H52.046L50.2166 18.0958H48.1223ZM59.6008 27.0396V18.0958H57.8484V27.0396H59.6008ZM66.1855 27.0396H68.52V18.0958H66.9585V25.005H66.8939L63.8418 18.0958H61.5196V27.0396H63.0872V20.3317H63.1488L66.1855 27.0396V27.0396ZM72.1912 27.0396V18.0958H70.4388V27.0396H72.1912ZM79.6844 24.4406C79.6844 22.8178 79.0407 22.3145 77.1897 21.7807C76.1303 21.4695 75.5882 21.2438 75.5882 20.408C75.5882 19.5691 76.1426 19.444 76.9095 19.444C77.6548 19.444 78.4371 19.5935 79.0561 19.8437L79.2686 18.4069C78.4771 18.0958 77.7441 17.9463 76.8756 17.9463C74.8275 17.9463 73.7711 18.6448 73.7711 20.5452C73.7711 22.2809 74.6797 22.8178 76.3305 23.2937C77.5039 23.6292 77.8581 23.8763 77.8581 24.5779C77.8581 25.493 77.2636 25.7157 76.4198 25.7157C75.6375 25.7157 74.7043 25.5418 74.0206 25.3161L73.7064 26.8139C74.4394 27.0549 75.2833 27.1891 76.3151 27.1891C78.742 27.1891 79.6844 26.4265 79.6844 24.4406V24.4406Z" fill="white"/>
<path d="M86.6324 19.6057V18.0958H80.1648V19.6057H82.5209V27.0396H84.2764V19.6057H86.6324V19.6057ZM94.1657 20.7588C94.1657 19.02 93.4204 18.0958 90.9596 18.0958H87.8459V27.0396H89.5952V23.5316H90.935L92.6905 27.0396H94.7047L92.7151 23.2693C93.7376 22.8697 94.1657 21.9942 94.1657 20.7588ZM92.3763 20.8076C92.3763 21.7685 92.056 22.1071 90.8487 22.1071H89.5952V19.5813H90.8487C91.9821 19.5813 92.3763 19.8284 92.3763 20.8076ZM101.477 24.4406C101.477 22.8178 100.834 22.3145 98.9825 21.7807C97.9231 21.4695 97.381 21.2438 97.381 20.408C97.381 19.5691 97.9354 19.444 98.7023 19.444C99.4476 19.444 100.23 19.5935 100.849 19.8437L101.065 18.4069C100.27 18.0958 99.5369 17.9463 98.6684 17.9463C96.6234 17.9463 95.5639 18.6448 95.5639 20.5452C95.5639 22.2809 96.4725 22.8178 98.1233 23.2937C99.2967 23.6292 99.6509 23.8763 99.6509 24.5779C99.6509 25.493 99.0565 25.7157 98.2126 25.7157C97.4303 25.7157 96.4971 25.5418 95.8134 25.3161L95.4993 26.8139C96.2323 27.0549 97.0761 27.1891 98.111 27.1891C100.535 27.1891 101.477 26.4265 101.477 24.4406V24.4406Z" fill="white"/>
<path d="M108.416 19.6066V18.0967H101.948V19.6066H104.305V27.0405H106.06V19.6066H108.416V19.6066ZM116.451 18.0967H114.674L112.743 25.5306H112.685L110.763 18.0967H108.912L111.357 27.0405H113.994L116.451 18.0967V18.0967Z" fill="white"/>
<path d="M120.754 27.1891C123.252 27.1891 124.428 26.1794 124.428 22.5555C124.428 18.9834 123.215 17.9463 120.754 17.9463C118.268 17.9463 117.058 18.9926 117.058 22.5921C117.058 26.1794 118.268 27.1891 120.754 27.1891V27.1891ZM120.742 25.6761C119.266 25.6761 118.888 24.9165 118.888 22.5433C118.888 20.1456 119.266 19.4593 120.742 19.4593C122.217 19.4593 122.596 20.1548 122.596 22.5433C122.596 24.9165 122.217 25.6761 120.742 25.6761ZM134.453 27.0396V25.554H130.277L134.364 19.5935V18.0958H128.549V19.5813H132.399L128.361 25.5174V27.0396H134.453V27.0396ZM141.013 27.0396H142.907L140.154 18.0958H137.798L135.06 27.0396H136.898L137.403 25.1514H140.483L141.013 27.0396V27.0396ZM138.906 19.6698H138.971L140.08 23.6933H137.807L138.906 19.6698Z" fill="white"/>
<path d="M146.689 27.0405H148.442V23.1177H148.91L151.395 27.0405H153.465L150.345 22.3551L153.326 18.0967H151.355L148.947 21.7175H148.442V18.0967H146.689V27.0405V27.0405ZM159.292 18.0967V23.7949C159.292 25.256 158.747 25.677 157.613 25.677C156.517 25.677 155.947 25.2926 155.947 23.7064V18.0967H154.195V23.8925C154.195 26.281 155.433 27.19 157.564 27.19C159.769 27.19 161.032 26.2047 161.032 23.8437V18.0967H159.292V18.0967Z" fill="white"/>
<path d="M168.362 27.0405V25.5306H164.598V18.0967H162.846V27.0405H168.362Z" fill="white"/>
<path d="M174.263 19.6066V18.0967H167.795V19.6066H170.151V27.0405H171.907V19.6066H174.263ZM180.469 18.0967V23.7949C180.469 25.256 179.927 25.677 178.793 25.677C177.694 25.677 177.127 25.2926 177.127 23.7064V18.0967H175.375V23.8925C175.375 26.281 176.613 27.19 178.741 27.19C180.949 27.19 182.212 26.2047 182.212 23.8437V18.0967H180.469V18.0967ZM190.349 20.7597C190.349 19.021 189.6 18.0967 187.143 18.0967H184.026V27.0405H185.778V23.5325H187.115L188.874 27.0405H190.888L188.898 23.2702C189.921 22.8706 190.349 21.9951 190.349 20.7597V20.7597ZM188.556 20.8085C188.556 21.7694 188.239 22.108 187.032 22.108H185.778V19.5822H187.032C188.165 19.5822 188.556 19.8293 188.556 20.8085Z" fill="white"/>
<path d="M195.329 27.1891C197.823 27.1891 199 26.1794 199 22.5555C199 18.9834 197.79 17.9463 195.329 17.9463C192.843 17.9463 191.63 18.9926 191.63 22.5921C191.63 26.1794 192.843 27.1891 195.329 27.1891V27.1891ZM195.313 25.6761C193.841 25.6761 193.462 24.9165 193.462 22.5433C193.462 20.1456 193.841 19.4593 195.313 19.4593C196.792 19.4593 197.17 20.1548 197.17 22.5433C197.17 24.9165 196.792 25.6761 195.313 25.6761Z" fill="white"/>
<path d="M24.0288 2.92647C20.0497 0.940649 16.0798 0.046875 12.036 0.046875C7.56098 0.046875 3.8929 1.05656 0 2.92647L0.825394 16.2385C1.24425 22.8671 5.86707 28.2328 12.036 29.9532C18.4297 28.1169 22.7722 22.6444 23.1911 16.2385L24.0288 2.92647V2.92647ZM12.036 10.458L14.4506 15.2929L16.1537 13.0508L20.2406 18.4074C20.0497 19.6794 19.2212 20.4664 17.5612 20.4664C16.3477 20.4664 16.1968 19.7557 14.7616 19.7557C13.3541 19.7557 13.2063 20.4664 12.036 20.4664C10.7486 20.4664 10.6747 19.7557 9.22409 19.7557C7.8628 19.7557 7.63797 20.4664 6.46764 20.4664C4.76141 20.4664 4.08693 19.8289 3.77587 18.447L7.8628 13.0508L9.56903 15.2929L12.036 10.458V10.458ZM14.7616 21.6347C13.4742 21.6347 13.3541 22.379 11.9928 22.379C10.7055 22.379 10.5115 21.6347 9.22409 21.6347C7.8628 21.6347 7.90592 22.3485 6.46764 22.3485C6.12578 22.3485 5.78084 22.2723 5.44822 22.1563C5.22339 21.8177 5.03244 21.4456 4.83841 21.1039C5.30038 21.2961 5.75004 21.5615 6.46764 21.5615C7.75501 21.5615 7.90592 20.8508 9.22409 20.8508C10.5884 20.8508 10.6316 21.5615 11.9928 21.5615C13.3541 21.5615 13.4742 20.8508 14.7616 20.8508C16.1229 20.8508 16.1968 21.5615 17.5612 21.5615C18.1617 21.5615 18.6853 21.3693 19.1812 21.1466C18.9533 21.5188 18.8054 21.7842 18.5775 22.1563C18.2788 22.2723 17.9338 22.379 17.5612 22.379C16.1968 22.379 16.0798 21.6347 14.7616 21.6347V21.6347ZM17.6351 23.4314C16.0798 25.2281 14.1918 26.5032 12.036 27.2566C9.75998 26.4696 7.8628 25.1214 6.39372 23.4314C7.97983 23.4314 8.02295 22.7207 9.22409 22.7207C10.4037 22.7207 10.6316 23.4314 12.036 23.4314C13.4742 23.4314 13.505 22.7207 14.7616 22.7207C16.0367 22.7207 16.0798 23.4314 17.6351 23.4314V23.4314ZM23.0833 3.45725L22.2918 16.1653C21.9037 22.2723 17.6659 27.3299 12.036 29.0198C6.24281 27.3299 2.11276 22.1563 1.73702 16.1653L0.942427 3.45725C1.13646 3.34133 1.46908 3.23457 1.69391 3.11865L2.53162 16.1226C2.90736 21.8574 6.76946 26.5032 12.036 28.1901C17.592 26.3537 21.1523 21.5615 21.4849 16.1226L22.3226 3.11865C22.6244 3.23457 22.8492 3.34133 23.0833 3.45725V3.45725ZM12.036 5.74201L12.4425 6.67544L13.4742 6.57173L12.8614 7.38924L13.4742 8.21591L12.4425 8.09999L12.036 9.07918L11.6171 8.09999L10.5115 8.21591L11.1983 7.38924L10.5546 6.57173L11.6171 6.67544L12.036 5.74201V5.74201ZM9.07625 1.88628L9.49203 2.81971L10.5115 2.70379L9.91089 3.53046L10.5115 4.35102L9.49203 4.24426L9.07625 5.22039L8.66664 4.24426L7.56098 4.35102L8.24778 3.53046L7.6041 2.70379L8.66664 2.81971L9.07625 1.88628ZM14.9094 1.88628L15.3191 2.81971L16.3477 2.70379L15.7348 3.53046L16.3477 4.35102L15.3191 4.24426L14.9094 5.22039L14.4906 4.24426L13.3973 4.35102L14.0748 3.53046L13.4311 2.70379L14.4906 2.81971L14.9094 1.88628Z" fill="#B6BEC4"/>
</g>
<defs>
<clipPath id="clip0_5704_4207">
<rect width="199" height="30" fill="white"/>
</clipPath>
</defs>
</svg>
