<svg width="122" height="122" viewBox="0 0 122 122" fill="none" xmlns="http://www.w3.org/2000/svg">
<path fill-rule="evenodd" clip-rule="evenodd" d="M55.917 20.3332C36.2649 20.3332 20.3337 36.2644 20.3337 55.9165C20.3337 75.5686 36.2649 91.4998 55.917 91.4998C75.5691 91.4998 91.5003 75.5686 91.5003 55.9165C91.5003 36.2644 75.5691 20.3332 55.917 20.3332ZM10.167 55.9165C10.167 30.6495 30.65 10.1665 55.917 10.1665C81.184 10.1665 101.667 30.6495 101.667 55.9165C101.667 81.1835 81.184 101.667 55.917 101.667C30.65 101.667 10.167 81.1835 10.167 55.9165Z" fill="#AC7171"/>
<path fill-rule="evenodd" clip-rule="evenodd" d="M81.0426 81.0431C83.0278 79.0579 86.2463 79.0579 88.2315 81.0431L110.344 103.156C112.329 105.141 112.329 108.359 110.344 110.344C108.359 112.33 105.14 112.33 103.155 110.344L81.0426 88.232C79.0574 86.2468 79.0574 83.0282 81.0426 81.0431Z" fill="#AC7171"/>
<path d="M56.0833 60.0835C53.6333 60.0835 52 58.4502 52 56.0002V39.6668C52 37.2168 53.6333 35.5835 56.0833 35.5835C58.5333 35.5835 60.1667 37.2168 60.1667 39.6668V56.0002C60.1667 58.4502 58.5333 60.0835 56.0833 60.0835Z" fill="#AC7171"/>
<path d="M56.0833 76.4168C54.8583 76.4168 54.0417 76.0085 53.225 75.1918C52.4083 74.3752 52 73.5585 52 72.3335C52 71.9252 52 71.1085 52.4083 70.7002C52.8167 70.2918 52.8167 69.8835 53.225 69.4752C54.45 68.2502 56.0833 67.8418 57.7167 68.6585C58.125 68.6585 58.125 68.6585 58.5333 69.0668C58.5333 69.0668 58.9417 69.4752 59.35 69.4752C59.7583 69.8835 60.1667 70.2918 60.1667 70.7002C60.1667 71.1085 60.1667 71.9252 60.1667 72.3335C60.1667 72.7418 60.1667 73.5585 59.7583 73.9668C59.35 74.3752 59.35 74.7835 58.9417 75.1918C58.125 76.0085 57.3083 76.4168 56.0833 76.4168Z" fill="#AC7171"/>
</svg>
