<svg width="18" height="18" viewBox="0 0 18 18" fill="none" xmlns="http://www.w3.org/2000/svg">
<path fill-rule="evenodd" clip-rule="evenodd" d="M1.5 3.75C1.5 2.50736 2.50736 1.5 3.75 1.5H14.25C15.4926 1.5 16.5 2.50736 16.5 3.75V14.25C16.5 15.4926 15.4926 16.5 14.25 16.5H3.75C2.50736 16.5 1.5 15.4926 1.5 14.25V3.75Z" fill="#006CB7"/>
<path fill-rule="evenodd" clip-rule="evenodd" d="M12.6857 6.21973C12.9786 6.51262 12.9786 6.98749 12.6857 7.28039L8.03033 12.1554C7.73744 12.4483 7.26256 12.4483 6.96967 12.1554L4.71967 9.90539C4.42678 9.61249 4.42678 9.13762 4.71967 8.84473C5.01256 8.55183 5.48744 8.55183 5.78033 8.84473L7.5 10.5644L11.625 6.21973C11.9179 5.92683 12.3928 5.92683 12.6857 6.21973Z" fill="white"/>
</svg>
