<svg width="12" height="12" viewBox="0 0 12 12" fill="none" xmlns="http://www.w3.org/2000/svg">
<path d="M3.01288 5.15341L0.866212 1.81341C0.546212 1.31341 0.899545 0.666748 1.48621 0.666748C1.74621 0.666748 1.97955 0.800082 2.11955 1.02008L3.95954 3.99341H4.03955L5.86621 1.02675C6.00621 0.800081 6.24621 0.666748 6.50621 0.666748C7.09288 0.666748 7.45288 1.32008 7.13288 1.81341L4.97955 5.14675L7.34621 8.84675C7.66621 9.34675 7.30621 10.0001 6.71954 10.0001C6.46621 10.0001 6.22621 9.86675 6.08621 9.65341L4.03955 6.39341H3.95954L1.91288 9.65341C1.77955 9.86675 1.53955 10.0001 1.27955 10.0001C0.692879 10.0001 0.332879 9.35341 0.652879 8.85341L3.01288 5.15341ZM11.3329 11.0001C11.3329 10.8134 11.1862 10.6667 10.9995 10.6667H9.33288V10.0001H10.6662C11.0329 10.0001 11.3329 9.70008 11.3329 9.33341V8.66675C11.3329 8.30008 11.0329 8.00008 10.6662 8.00008H8.99955C8.81288 8.00008 8.66621 8.14675 8.66621 8.33341C8.66621 8.52008 8.81288 8.66675 8.99955 8.66675H10.6662V9.33341H9.33288C8.96621 9.33341 8.66621 9.63341 8.66621 10.0001V10.6667C8.66621 11.0334 8.96621 11.3334 9.33288 11.3334H10.9995C11.1862 11.3334 11.3329 11.1867 11.3329 11.0001Z" fill="#323232"/>
</svg>
