<svg width="12" height="12" viewBox="0 0 12 12" fill="none" xmlns="http://www.w3.org/2000/svg">
<path d="M3.00621 6.48675L0.866212 3.14675C0.546212 2.64675 0.899545 2.00008 1.48621 2.00008C1.74621 2.00008 1.97955 2.13341 2.11955 2.35341L3.95954 5.32675H4.03955L5.86621 2.36008C5.99955 2.13341 6.23954 2.00008 6.49955 2.00008C7.08621 2.00008 7.44621 2.65341 7.12621 3.14675L4.97288 6.48008L7.33955 10.1801C7.66621 10.6801 7.30621 11.3334 6.71954 11.3334C6.46621 11.3334 6.22621 11.2001 6.08621 10.9867L4.03955 7.72675H3.95954L1.91288 10.9867C1.77288 11.2001 1.53955 11.3334 1.27955 11.3334C0.692879 11.3334 0.332879 10.6867 0.652879 10.1867L3.00621 6.48675ZM11.3329 3.66675C11.3329 3.48008 11.1862 3.33341 10.9995 3.33341H9.33288V2.66675H10.6662C11.0329 2.66675 11.3329 2.36675 11.3329 2.00008V1.33341C11.3329 0.966748 11.0329 0.666748 10.6662 0.666748H8.99955C8.81288 0.666748 8.66621 0.813415 8.66621 1.00008C8.66621 1.18675 8.81288 1.33341 8.99955 1.33341H10.6662V2.00008H9.33288C8.96621 2.00008 8.66621 2.30008 8.66621 2.66675V3.33341C8.66621 3.70008 8.96621 4.00008 9.33288 4.00008H10.9995C11.1862 4.00008 11.3329 3.85341 11.3329 3.66675Z" fill="#323232"/>
</svg>
