<svg width="20" height="21" viewBox="0 0 20 21" fill="none" xmlns="http://www.w3.org/2000/svg">
<path d="M0.999996 10C1.26521 10 1.51957 10.1054 1.7071 10.2929C1.89464 10.4804 2 10.7348 2 11C1.98809 12.873 2.62971 14.6916 3.81434 16.1425C4.99897 17.5933 6.65247 18.5857 8.49004 18.9486C10.3276 19.3115 12.2342 19.0223 13.8815 18.1308C15.5288 17.2392 16.8136 15.8012 17.5147 14.0643C18.2158 12.3273 18.2892 10.4003 17.7224 8.61508C17.1556 6.82983 15.9839 5.29813 14.4093 4.28378C12.8347 3.26942 10.9556 2.83591 9.09574 3.05791C7.23587 3.27991 5.51164 4.14352 4.22 5.5H6.62C6.88521 5.5 7.13957 5.60536 7.3271 5.79289C7.51464 5.98043 7.62 6.23478 7.62 6.5C7.62 6.76522 7.51464 7.01957 7.3271 7.20711C7.13957 7.39464 6.88521 7.5 6.62 7.5H2.09C1.82478 7.5 1.57043 7.39464 1.38289 7.20711C1.19535 7.01957 1.09 6.76522 1.09 6.5V2C1.09 1.73478 1.19535 1.48043 1.38289 1.29289C1.57043 1.10536 1.82478 1 2.09 1C2.35521 1 2.60957 1.10536 2.7971 1.29289C2.98464 1.48043 3.09 1.73478 3.09 2V3.77C4.75533 2.17806 6.91925 1.20995 9.21598 1.02933C11.5127 0.848705 13.8014 1.46664 15.6951 2.77869C17.5888 4.09074 18.9714 6.01641 19.6092 8.23019C20.2469 10.444 20.1008 12.8101 19.1954 14.9285C18.29 17.047 16.6809 18.7878 14.6401 19.8568C12.5993 20.9258 10.252 21.2574 7.99496 20.7955C5.73792 20.3336 3.7096 19.1065 2.25286 17.3217C0.796127 15.5369 0.000329971 13.3038 -3.8147e-06 11C-3.8147e-06 10.7348 0.105352 10.4804 0.292889 10.2929C0.480425 10.1054 0.734779 10 0.999996 10Z" fill="#006CB7"/>
</svg>
