<svg width="32" height="32" viewBox="0 0 32 32" fill="none" xmlns="http://www.w3.org/2000/svg">
<path fill-rule="evenodd" clip-rule="evenodd" d="M1.95262 20.6194C3.20286 19.3691 4.89856 18.6667 6.66667 18.6667H17.3333C19.1014 18.6667 20.7971 19.3691 22.0474 20.6194C23.2976 21.8696 24 23.5653 24 25.3334V28.0001C24 28.7365 23.403 29.3334 22.6667 29.3334C21.9303 29.3334 21.3333 28.7365 21.3333 28.0001V25.3334C21.3333 24.2725 20.9119 23.2551 20.1618 22.505C19.4116 21.7548 18.3942 21.3334 17.3333 21.3334H6.66667C5.6058 21.3334 4.58839 21.7548 3.83824 22.505C3.08809 23.2551 2.66667 24.2725 2.66667 25.3334V28.0001C2.66667 28.7365 2.06971 29.3334 1.33333 29.3334C0.596954 29.3334 0 28.7365 0 28.0001V25.3334C0 23.5653 0.702379 21.8696 1.95262 20.6194Z" fill="#46535B"/>
<path fill-rule="evenodd" clip-rule="evenodd" d="M11.9997 5.33341C9.79053 5.33341 7.99967 7.12428 7.99967 9.33341C7.99967 11.5426 9.79053 13.3334 11.9997 13.3334C14.2088 13.3334 15.9997 11.5426 15.9997 9.33341C15.9997 7.12428 14.2088 5.33341 11.9997 5.33341ZM5.33301 9.33341C5.33301 5.65152 8.31778 2.66675 11.9997 2.66675C15.6816 2.66675 18.6663 5.65152 18.6663 9.33341C18.6663 13.0153 15.6816 16.0001 11.9997 16.0001C8.31778 16.0001 5.33301 13.0153 5.33301 9.33341Z" fill="#46535B"/>
<path fill-rule="evenodd" clip-rule="evenodd" d="M25.3757 19.8399C25.5598 19.1269 26.287 18.6982 27 18.8823C28.4302 19.2515 29.6973 20.0854 30.6023 21.2528C31.5073 22.4202 31.9989 23.8551 32 25.3323L32 27.9999C32 28.7363 31.403 29.3333 30.6667 29.3333C29.9303 29.3333 29.3333 28.7363 29.3333 27.9999L29.3333 25.3343C29.3333 25.3341 29.3333 25.3344 29.3333 25.3343C29.3326 24.4481 29.0376 23.5869 28.4947 22.8866C27.9517 22.1861 27.1915 21.6858 26.3333 21.4643C25.6203 21.2802 25.1916 20.5529 25.3757 19.8399Z" fill="#46535B"/>
<path fill-rule="evenodd" clip-rule="evenodd" d="M20.042 3.84253C20.2246 3.12917 20.951 2.69894 21.6644 2.88159C23.0984 3.24876 24.3694 4.08276 25.2771 5.2521C26.1848 6.42145 26.6774 7.85964 26.6774 9.33992C26.6774 10.8202 26.1848 12.2584 25.2771 13.4277C24.3694 14.5971 23.0984 15.4311 21.6644 15.7983C20.951 15.9809 20.2246 15.5507 20.042 14.8373C19.8593 14.1239 20.2896 13.3976 21.0029 13.2149C21.8633 12.9946 22.626 12.4942 23.1706 11.7926C23.7152 11.091 24.0108 10.2281 24.0108 9.33992C24.0108 8.45175 23.7152 7.58884 23.1706 6.88723C22.626 6.18562 21.8633 5.68522 21.0029 5.46492C20.2896 5.28227 19.8593 4.5559 20.042 3.84253Z" fill="#46535B"/>
</svg>
