<svg width="13" height="13" viewBox="0 0 13 13" fill="none" xmlns="http://www.w3.org/2000/svg">
<path fill-rule="evenodd" clip-rule="evenodd" d="M10.1332 2.86715C10.3447 3.07868 10.3447 3.42164 10.1332 3.63318L3.63318 10.1332C3.42164 10.3447 3.07868 10.3447 2.86715 10.1332C2.65561 9.92165 2.65561 9.57868 2.86715 9.36715L9.36715 2.86715C9.57868 2.65561 9.92165 2.65561 10.1332 2.86715Z" fill="#848C91" stroke="#848C91" stroke-linecap="round" stroke-linejoin="round"/>
<path fill-rule="evenodd" clip-rule="evenodd" d="M2.86715 2.86715C3.07868 2.65561 3.42164 2.65561 3.63318 2.86715L10.1332 9.36715C10.3447 9.57868 10.3447 9.92165 10.1332 10.1332C9.92165 10.3447 9.57868 10.3447 9.36715 10.1332L2.86715 3.63318C2.65561 3.42164 2.65561 3.07868 2.86715 2.86715Z" fill="#848C91" stroke="#848C91" stroke-linecap="round" stroke-linejoin="round"/>
</svg>
